<?xml version="1.0" standalone="no"?>
<!DOCTYPE svg PUBLIC "-//W3C//DTD SVG 1.1//EN" "http://www.w3.org/Graphics/SVG/1.1/DTD/svg11.dtd" >
<svg xmlns="http://www.w3.org/2000/svg">
<metadata></metadata>
<defs>
<font id="lilita_oneregular" horiz-adv-x="1341" >
<font-face units-per-em="2048" ascent="1638" descent="-410" />
<missing-glyph horiz-adv-x="385" />
<glyph horiz-adv-x="2048" />
<glyph horiz-adv-x="2048" />
<glyph unicode="&#xd;" horiz-adv-x="681" />
<glyph unicode=" "  horiz-adv-x="385" />
<glyph unicode="&#x09;" horiz-adv-x="385" />
<glyph unicode="&#xa0;" horiz-adv-x="385" />
<glyph unicode="!" horiz-adv-x="587" d="M92 6v301q0 14 189.5 14.5t189.5 -12.5v-295q0 -20 -189.5 -20t-189.5 12zM96 1438q0 16 187.5 16t187.5 -14l-41 -1010q0 -12 -146.5 -12t-146.5 10z" />
<glyph unicode="&#x22;" horiz-adv-x="942" d="M133 1358q0 37 72 53q37 8 73.5 8t73.5 -8q74 -16 74 -53v-432q0 -37 -57 -54q-29 -8 -57.5 -8t-57.5 8q-59 16 -59 54zM522 926v432q0 37 72 53q37 8 74 8t73 -8q74 -16 74 -53l-61 -432q0 -37 -58 -54q-28 -8 -57 -8t-57 8q-59 16 -60 54z" />
<glyph unicode="#" horiz-adv-x="1705" d="M186.5 467q-0.5 39 4 69.5t21.5 54t40 21.5h225l72 213h-234q-23 0 -36 25q-18 29 -18.5 67.5t3.5 69.5t21.5 54.5t40.5 21.5h303l102 301q12 33 66 33q41 0 88 -21q92 -41 76 -84l-78 -229h237l101 299q16 45 100 27q86 -16 119 -58q18 -23 10 -43l-76 -223h142 q37 0 53 -59q10 -33 10 -63t-6 -56q-14 -59 -53 -60h-228l-71 -213h221q37 0 53 -59q10 -33 10 -62.5t-6 -56.5q-14 -59 -53 -59l-307 -2l-117 -346q-12 -31 -61 -31q-43 0 -91 22q-94 45 -71 93l88 262h-238l-117 -344q-10 -29 -57 -29t-94 23q-94 45 -72 92l86 258h-153 q-23 0 -37 24q-18 29 -18.5 68zM702 594h279l84 250h-279z" />
<glyph unicode="$" horiz-adv-x="1087" d="M70 186q0 115 69 232q6 12 17 26q166 -100 350 -112v225q-436 27 -436 447q0 184 116.5 302.5t319.5 143.5v121q0 37 21.5 49t35.5 12l29 -8q29 -16 29 -53v-117q152 -6 262 -42t110 -107q0 -63 -42 -168t-58 -111q-172 72 -272 80v-232q430 -16 430 -413 q0 -186 -106.5 -319.5t-323.5 -155.5v-142q0 -37 -21.5 -49t-36.5 -12l-28 8q-29 16 -29 53v136q-172 4 -304 61t-132 145zM381 981q0 -86 125 -100v223q-125 -21 -125 -123zM621 336q145 24 145 135q0 47 -32 64.5t-113 21.5v-221z" />
<glyph unicode="%" horiz-adv-x="1634" d="M72 1059.5q0 197.5 86 297t224 99.5t226 -100.5t88 -294t-87 -293.5t-224 -100t-225 97t-88 294.5zM202.5 106.5q0.5 18.5 8.5 28.5l973 1303q18 16 39 16q76 0 137 -76q25 -31 24.5 -50t-8.5 -30l-973 -1302q-18 -16 -38 -16q-74 0 -136 77q-27 31 -26.5 49.5zM289 1063 q0 -63 26.5 -96t69.5 -33t69.5 33t26.5 96q0 133 -96 133t-96 -133zM918 375.5q0 197.5 86 297t224 99.5t226 -100.5t88 -294t-87 -293.5t-224 -100t-225 97t-88 294.5zM1135 379q0 -63 26.5 -96t69.5 -33t69.5 33t26.5 96q0 133 -96 133t-96 -133z" />
<glyph unicode="&#x26;" horiz-adv-x="1366" d="M90 392q0 181 174 310q-129 143 -129 332t131 304.5t340 115.5t331 -102.5t122 -276.5q0 -35 -66.5 -67.5t-158.5 -33t-119 26.5l2 21q0 51 -34 82t-83 31t-82 -33t-33 -90q0 -156 220 -156q49 0 110 8q403 51 408 51q57 0 57 -116q0 -94 -39 -187l-209 -24 q53 -129 53 -234q0 -162 -123.5 -268t-360 -106t-374 115.5t-137.5 296.5zM466.5 478.5q0.5 -46.5 14.5 -81.5q33 -80 131 -80q70 0 101.5 50.5t31.5 126.5q0 35 -2 52t-2 21q-70 -12 -137.5 -12t-114.5 29q-23 -59 -22.5 -105.5z" />
<glyph unicode="'" horiz-adv-x="616" d="M143 1358q0 37 78 53q39 8 78 8t78 -8q80 -16 80 -53l-41 -432q0 -37 -60 -54q-28 -8 -57 -8t-57 8q-57 16 -58 54z" />
<glyph unicode="(" horiz-adv-x="880" d="M194.5 657.5q-0.5 370.5 194.5 726.5q23 41 70 41q72 0 119 -18t70.5 -27.5t49.5 -25.5q-98 -217 -146 -375t-48 -342q2 -354 201 -694q-20 -20 -79 -47t-90.5 -36.5t-52.5 -9.5q-74 0 -102 60q-186 377 -186.5 747.5z" />
<glyph unicode=")" horiz-adv-x="864" d="M195 -57q199 340 200 694q0 184 -48 342t-146 375q0 4 67 32q96 41 153.5 41t88.5 -43q195 -356 195 -726.5t-187 -747.5q-31 -59 -102 -60q-43 0 -107 29q-94 43 -114 64z" />
<glyph unicode="*" horiz-adv-x="1140" d="M166 1059q0 37 20.5 74.5t51.5 37.5l256 -47l-9 244q-2 35 47 49q25 8 49.5 8t49.5 -8q47 -14 45 -49l-8 -244q248 47 269 47t41.5 -36.5t20.5 -61.5q0 -78 -47 -82l-235 -28l151 -234q29 -70 -84 -111q-20 -6 -32 -6q-41 0 -52 21l-120 231l-111 -231 q-12 -16 -31.5 -16.5t-49.5 6t-60.5 37t-30.5 48t8 27.5l144 228q-170 23 -236 28q-47 2 -47 68z" />
<glyph unicode="+" horiz-adv-x="1232" d="M76 712.5q0 28.5 8 59.5q16 59 53 59h348v345q0 37 60 53q29 8 59 8l60 -8q59 -16 59 -53v-345h346q37 0 53 -59q8 -31 8 -59.5t-8 -59.5q-16 -59 -53 -59h-346v-350q0 -37 -59 -54q-29 -8 -60 -8l-59 8q-59 16 -60 54v350h-348q-37 0 -53 59q-8 31 -8 59.5z" />
<glyph unicode="," horiz-adv-x="624" d="M111 -154.5q0 9.5 2 17.5l125 254l8 186q12 33 174 33t162 -43l-4 -174l-119 -279q-27 -59 -165 -59t-175 45q-8 10 -8 19.5z" />
<glyph unicode="-" horiz-adv-x="1075" d="M72 508.5q0 28.5 8 58.5q16 59 53 60h809q37 0 53 -60q8 -31 8.5 -59.5t-8.5 -58.5q-16 -60 -53 -60h-809q-37 0 -53 60q-8 31 -8 59.5z" />
<glyph unicode="." horiz-adv-x="468" d="M41 -8v368q0 18 193.5 18.5t193.5 -9.5v-375q0 -14 -193.5 -14t-193.5 12z" />
<glyph unicode="/" horiz-adv-x="1173" d="M0 -95.5q0 11.5 6 21.5l957 1661q10 23 39.5 23t62.5 -15q76 -35 98 -82q8 -14 8 -26t-4 -21l-956 -1661q-12 -20 -43 -20t-62 14q-78 37 -100 82q-6 12 -6 23.5z" />
<glyph unicode="0" horiz-adv-x="1308" d="M72 718.5q0 362.5 163.5 548t423 185.5t419 -184.5t159.5 -555t-163 -551.5t-420 -181t-419.5 188t-162.5 550.5zM467 717q0 -164 52 -251t135 -87t135.5 88t52.5 252t-54.5 252t-133.5 88t-133 -89t-54 -253z" />
<glyph unicode="1" horiz-adv-x="831" d="M31 1239q0 68 13 131.5t46 63.5h561q35 0 56.5 -15.5t21.5 -38.5v-1345q0 -35 -208 -35t-208 35v1009l-221 -2q-61 0 -61 197z" />
<glyph unicode="2" horiz-adv-x="1075" d="M88 1252.5q0 29.5 10 56.5q16 53 152.5 100t288.5 47q459 0 458 -407q0 -180 -122.5 -365.5t-286.5 -321.5l413 17q10 -109 10.5 -188.5t-32.5 -135t-92 -55.5h-680q-72 0 -101 139q-14 76 -14 115t12 51q459 473 459 643q0 57 -29.5 86t-94 29t-129 -24.5t-101.5 -53.5 q-80 96 -111 203q-10 35 -10 64.5z" />
<glyph unicode="3" horiz-adv-x="1081" d="M41 135q0 57 28.5 130t55.5 117t31 44q119 -72 250 -72q82 0 132 33t50 91.5t-46 74.5t-147 22h-73q-25 0 -46.5 60.5t-21.5 118.5q0 96 57 98l60 2q55 0 115.5 32t60.5 81q0 86 -154 86q-115 0 -221 -45q-92 166 -92 259t130 140t326.5 47t307 -82t110.5 -223 q0 -248 -213 -381q258 -104 258 -354q0 -195 -137 -314.5t-393 -119.5q-162 0 -295 46t-133 109z" />
<glyph unicode="4" horiz-adv-x="1224" d="M20 556q0 38 13 60l448 795q8 16 126 24.5t247 8.5t129 -10l2 -822h135q20 0 20.5 -154.5t-20.5 -154.5l-135 -2v-258q0 -23 -84 -33t-145 -10l-84 4q-104 8 -105 37v254h-407q-53 53 -96.5 138t-43.5 123zM387 610h240v428z" />
<glyph unicode="5" horiz-adv-x="1073" d="M90 128q0 56 16.5 159.5t45.5 103.5q2 0 12 -8q145 -59 222 -59t127 42t50 107q0 164 -176 164l-176 -2q-20 -4 -40.5 17.5t-20.5 56.5v641q0 84 61 84h663q39 0 39 -170q0 -53 -9 -126t-34 -73h-399l-2 -150h68q219 0 326.5 -126.5t107.5 -335.5t-147.5 -341t-379 -132 t-338.5 65q-16 27 -16 83z" />
<glyph unicode="6" horiz-adv-x="1177" d="M72 645q0 373 169 591t439 218q307 0 307 -125q0 -90 -57 -192q-21 -46 -56 -97q-82 45 -190 45q-190 0 -217 -245q106 31 227 30q207 0 304.5 -107.5t97.5 -293.5q0 -225 -139.5 -357t-377 -132t-372.5 173t-135 492zM463 522q0 -33 7 -81t41 -94t89 -46q141 0 141 166 q0 63 -38.5 103t-117.5 40t-120 -28q-2 -27 -2 -60z" />
<glyph unicode="7" horiz-adv-x="1024" d="M49 1229q0 68 13.5 131t46.5 63l716 2q82 0 133 -90q25 -45 35 -90l-352 -1218q-10 -33 -217 -33t-231 18q-8 6 -9 15l342 1003h-415q-61 0 -62 199z" />
<glyph unicode="8" horiz-adv-x="1167" d="M55 418.5q0 197.5 199 351.5q-139 121 -139 291t133 280.5t340 110.5t330.5 -103.5t122.5 -260t-132 -283.5q84 -61 138.5 -158.5t54.5 -214.5q0 -201 -144.5 -328t-385 -127t-379 122t-138.5 319.5zM461 451q0 -59 35.5 -95.5t89 -36.5t87.5 36t34 96q0 111 -142 182 q-104 -63 -104 -182zM471 1036q0 -92 141 -174q70 78 70 168q0 45 -32 76t-70 31q-104 0 -109 -101z" />
<glyph unicode="9" horiz-adv-x="1157" d="M82 959.5q0 220.5 134 357.5t367.5 137t367.5 -164t134 -483q0 -399 -142 -613t-423 -214q-348 0 -348 116q0 61 24.5 160.5t53.5 99.5q154 -31 231.5 -30.5t140 49.5t72.5 153q-102 -29 -164 -28q-215 0 -331.5 119.5t-116.5 340zM442 935.5q0 -65.5 42 -105 t107.5 -39.5t106.5 28q0 141 -26.5 203.5t-92 62.5t-101.5 -42t-36 -107.5z" />
<glyph unicode=":" horiz-adv-x="567" d="M119 -8v368q0 18 193.5 18.5t193.5 -9.5v-375q0 -14 -193.5 -14t-193.5 12zM119 649v369q0 18 193.5 18t193.5 -10v-375q0 -14 -193.5 -14t-193.5 12z" />
<glyph unicode=";" horiz-adv-x="567" d="M29 -154.5q0 9.5 2 17.5l125 254l8 186q12 33 174 33t162 -43l-4 -174l-119 -279q-27 -59 -165 -59t-175 45q-8 10 -8 19.5zM119 649v369q0 18 193.5 18t193.5 -10v-375q0 -14 -193.5 -14t-193.5 12z" />
<glyph unicode="&#x3c;" horiz-adv-x="991" d="M106 682.5q0 22.5 21 42.5l475 567q12 15 34.5 15t67 -20.5t72 -57.5t27.5 -54.5t-12 -29.5l-414 -459l420 -432q12 -12 12 -29.5t-28.5 -55.5t-71.5 -57.5t-64.5 -19.5t-36.5 14l-473 525q-29 29 -29 51.5z" />
<glyph unicode="=" horiz-adv-x="1187" d="M137 446.5q0 28.5 8 59.5q16 59 54 59h809q37 0 53 -59q8 -31 8 -59.5t-8 -59.5q-16 -59 -53 -59h-809q-37 0 -54 59q-8 31 -8 59.5zM137 905.5q0 28.5 8 59.5q16 59 54 59h809q37 0 53 -59q8 -31 8 -59.5t-8 -59.5q-16 -60 -53 -60h-809q-37 0 -54 60q-8 31 -8 59.5z " />
<glyph unicode="&#x3e;" horiz-adv-x="921" d="M106 224.5q0 17.5 13 29.5l420 432l-414 459q-12 12 -12 29.5t27.5 54.5t71.5 56.5t65.5 19.5t35.5 -13l475 -567q20 -20 20.5 -43t-28.5 -51l-473 -525q-14 -14 -35.5 -14t-65.5 19.5t-72 57.5t-28 55.5z" />
<glyph unicode="?" horiz-adv-x="1196" d="M135 1260.5q0 25.5 10 48.5q16 53 152.5 100t288.5 47q229 0 343.5 -98t114.5 -268q0 -78 -37.5 -153t-92 -131t-107.5 -106q-129 -123 -129 -186v-61q0 -25 -76 -36t-137 -11q-162 0 -162 38v78q0 92 154 236q57 53 105 120.5t48 122.5q0 102 -117.5 102.5t-236.5 -77.5 q-78 78 -109 176q-12 33 -12 58.5zM328 -10v321q0 16 169 16.5t169 -10.5v-325q0 -12 -169 -12t-169 10z" />
<glyph unicode="@" horiz-adv-x="1775" d="M80 516q0 387 238.5 623.5t627.5 236.5q301 0 483.5 -178t182.5 -448.5t-126 -403.5t-308 -133q-63 0 -124 26.5t-89 59.5q-96 -84 -228.5 -84t-203 69.5t-70.5 211.5q0 223 157.5 376.5t350.5 153.5q162 0 198 -63q18 -33 18.5 -69t-57.5 -452l87 -4q33 0 61.5 24.5 t44.5 55.5q43 74 43 223q0 197 -119 312.5t-313 115.5q-289 0 -458 -178t-169 -465q0 -487 584 -487q180 0 291 37q10 -10 30 -39q31 -53 31 -96q0 -121 -405 -121q-350 0 -554 181t-204 515zM750 518q0 -76 67 -76q39 0 55 19l41 293q5 30 -22 30q-45 0 -91 -79.5 t-50 -186.5z" />
<glyph unicode="A" d="M31 29l362 1386q1 17 281 17h15q265 0 265 -17l355 -1388q0 -14 -94.5 -22.5t-149.5 -8.5q-178 0 -193 57l-67 264h-326l-59 -254q-12 -63 -197 -63q-98 0 -145 11.5t-47 17.5zM530 578h215l-92 423h-12z" />
<glyph unicode="B" horiz-adv-x="1216" d="M125 86v1311q0 23 7 30t30 7h467q479 0 479 -371q0 -213 -184 -324q100 -37 167.5 -127t67.5 -254.5t-122 -261t-349 -96.5h-483q-35 0 -57.5 23.5t-22.5 62.5zM518 326h37q88 0 129 32.5t41 104.5t-38 100.5t-126 28.5h-43v-266zM518 834h10q197 0 197 131 q0 72 -38 104.5t-126 32.5h-43v-268z" />
<glyph unicode="C" horiz-adv-x="1148" d="M61 707.5q0 347.5 179.5 546t447.5 198.5q150 0 263.5 -42t113.5 -113.5t-54.5 -177t-90.5 -105.5q-10 0 -23.5 11t-62 24.5t-82.5 13.5q-119 0 -192 -84t-73 -257t75 -257t190 -84q47 0 105 13.5t83 37.5q4 4 16.5 4t46 -46t62.5 -120.5t29 -115.5q0 -80 -123 -127 t-291 -47q-270 0 -444.5 190t-174.5 537.5z" />
<glyph unicode="D" horiz-adv-x="1261" d="M102 94v1229q0 51 26 81t67 30h342q326 0 494.5 -164t168.5 -516q0 -754 -643 -754h-350q-105 0 -105 94zM496 432q0 -43 6 -54t37 -11q113 0 171 84t58 279.5t-60.5 254.5t-191.5 59h-20v-612z" />
<glyph unicode="E" horiz-adv-x="1009" d="M102 63v1317q0 53 48 54h733q43 0 43 -181.5t-43 -181.5h-379v-207h264q39 0 39 -143q0 -43 -9.5 -101.5t-33.5 -58.5h-260v-205h377q35 0 47 -90q6 -39 6 -83t-12.5 -113.5t-40.5 -69.5h-701q-78 0 -78 63z" />
<glyph unicode="F" horiz-adv-x="966" d="M92 25v1355q0 33 13.5 43.5t39.5 10.5h723q35 0 35 -181.5t-35 -181.5h-374v-233h249q35 0 35 -159t-33 -159h-251v-493q0 -29 -77 -38t-128 -9l-96 4q-100 12 -101 41z" />
<glyph unicode="G" horiz-adv-x="1271" d="M61 737q0 317 178.5 516t493.5 199q143 0 259 -27.5t159 -74.5q2 -16 2 -61.5t-30.5 -128.5t-69.5 -124t-56.5 -41t-37 15.5t-77 33t-110.5 17.5q-127 0 -206 -82t-79 -254t81 -261t186.5 -89t105.5 53l4 279q0 29 59.5 38t98.5 9l80 -6q78 -12 78 -43l-9 -642 q-41 -29 -164.5 -56t-283.5 -27q-297 0 -479.5 192.5t-182.5 564.5z" />
<glyph unicode="H" horiz-adv-x="1318" d="M102 35v1358q0 43 207 43t207 -43v-482h287v478q0 29 102 41q53 4 105 4l104 -4q102 -12 103 -41v-1354q0 -35 -207 -35t-207 35v471h-287v-471q0 -35 -207 -35t-207 35z" />
<glyph unicode="I" horiz-adv-x="878" d="M37 1257.5q0 45.5 6 88.5q14 88 49 88h688q35 0 47 -88q9 -46 9 -93q0 -43 -9 -84q-12 -88 -47 -88h-137v-729h143q35 0 50 -88q8 -43 8 -88t-8 -88q-14 -88 -50 -88h-690q-35 0 -47 88q-8 43 -8 88t8 88q12 88 47 88h142v729h-146q-35 0 -49 88q-6 43 -6 88.5z" />
<glyph unicode="J" horiz-adv-x="946" d="M18 184q0 59 35 138t76 108q78 -57 158 -57l63 10q111 33 115 176v522h-164q-35 0 -49 88q-6 43 -6 88.5t6 88.5q14 88 49 88h487q41 0 61.5 -24t20.5 -56v-967q0 -201 -134 -305.5t-321.5 -104.5t-292 55.5t-104.5 151.5z" />
<glyph unicode="K" horiz-adv-x="1269" d="M102 33v1374q0 35 205 35t205 -35v-524l250 524q14 29 164 29q272 0 286 -47q0 -4 -2 -9l-356 -643l414 -571q0 -4 -39 -35q-94 -82 -221 -129q-39 -14 -78 -14l-49 4q-66 16 -103 84l-233 446h-33v-493q0 -31 -193 -31l-114 6q-102 8 -103 29z" />
<glyph unicode="L" horiz-adv-x="890" d="M82 121v1274q0 43 208 43t208 -43v-1004h315q37 0 51 -96q6 -47 6 -96t-6 -101q-16 -98 -53 -98h-631q-45 0 -71.5 37t-26.5 84z" />
<glyph unicode="M" horiz-adv-x="1857" d="M102 55l48 1331q0 49 249 50q74 0 180.5 -11.5t118.5 -44.5l230 -645l200 647q18 53 283 54q76 0 181.5 -11.5t105.5 -40.5l59 -1343q0 -23 -80 -33t-141 -10q-182 0 -182 41l-43 821l-250 -831q-8 -25 -139 -25t-136 23l-258 841l-28 -817q-2 -31 -78 -42t-126 -11 t-97 6q-98 14 -97 51z" />
<glyph unicode="N" horiz-adv-x="1327" d="M102 35v1370q0 31 162 31q63 0 148.5 -11.5t103.5 -42.5l328 -630v643q0 39 190.5 39t190.5 -39v-1350q0 -43 -192.5 -43t-209.5 31l-342 639v-637q0 -37 -189.5 -37t-189.5 37z" />
<glyph unicode="O" horiz-adv-x="1425" d="M61 717.5q0 361.5 183.5 548t473.5 186.5t468 -183.5t178 -555t-182.5 -552.5t-470 -181t-469 188t-181.5 549.5zM481 716q0 -163 63.5 -250t167 -87t168 88t64.5 252t-66.5 252t-165 88t-165 -90t-66.5 -253z" />
<glyph unicode="P" horiz-adv-x="1167" d="M94 37v1327q0 70 64 70h360q303 0 437.5 -125t134.5 -363q0 -197 -127 -360q-63 -82 -186.5 -131t-287.5 -49v-367q0 -25 -76.5 -34t-131.5 -9q-186 0 -187 41zM489 754h27q72 0 121 45t49 127t-34 116.5t-120 34.5h-43v-323z" />
<glyph unicode="Q" horiz-adv-x="1445" d="M61 715q0 365 183.5 551t473.5 186t468 -183.5t178 -553.5q0 -285 -110.5 -459t-303.5 -240l217 -149q13 -8 13 -30t-46 -81q-47 -59 -111.5 -91t-97 -32t-53.5 23l-299 332q-229 43 -370.5 230.5t-141.5 496.5zM481 716q0 -163 63.5 -250t167 -87t168 88t64.5 252 t-66.5 252t-165 88t-165 -90t-66.5 -253z" />
<glyph unicode="R" horiz-adv-x="1208" d="M102 27v1335q0 72 76 72h391q539 0 539 -420q0 -127 -49 -230.5t-139 -165.5l258 -430q-16 -49 -107 -112q-123 -88 -203 -88t-118 57l-193 449h-63v-465q0 -33 -195 -33q-197 0 -197 31zM494 764h10q194 0 194 160q0 76 -37.5 111.5t-123.5 35.5h-43v-307z" />
<glyph unicode="S" horiz-adv-x="1087" d="M59 223q0 84 31 167t66 110q39 -31 134 -84.5t182 -53.5t87 68q0 31 -24.5 54.5t-90 54t-98.5 48t-87 57.5t-83 83q-82 117 -82 297t134 304t352 124q147 0 272 -31.5t129 -83.5v-12q0 -72 -45 -181.5t-64 -121.5q-131 68 -234 68t-103 -74q0 -45 75 -80q16 -8 47 -22.5 t71 -34t86 -49t99 -78.5q109 -102 109 -271q0 -219 -121 -358t-373 -143q-123 0 -222 20t-173 79.5t-74 143.5z" />
<glyph unicode="T" horiz-adv-x="1028" d="M12 1247q0 47 6 92q14 94 50 95h890q35 0 50 -95q6 -45 6 -92t-6 -92q-14 -94 -50 -94h-239v-1028q0 -41 -203 -41t-203 41v1028h-245q-35 0 -50 94q-6 45 -6 92z" />
<glyph unicode="U" horiz-adv-x="1286" d="M61 483v908q0 41 222.5 41t222.5 -41v-924q0 -41 43 -66q44 -25 92 -25h2q49 0 89 23t40 68v926q0 41 222.5 41t222.5 -41v-940q0 -209 -149.5 -341t-413 -132t-428.5 136t-165 367z" />
<glyph unicode="V" horiz-adv-x="1353" d="M23 1407q0 10 89 19.5t146 9.5q227 0 238 -60l176 -901l166 901q12 59 254 60q59 0 149 -8.5t90 -18.5l-362 -1356q-8 -33 -121 -43q-108 -11 -204 -11q-58 0 -112 4q-142 11 -151 40z" />
<glyph unicode="W" horiz-adv-x="1951" d="M43 1413q-6 23 207 23q236 0 242 -39l100 -862l217 872q10 31 159.5 31t159.5 -29l213 -879l119 871q4 23 94.5 31t145.5 8q215 0 209 -29l-248 -1358q-8 -31 -116.5 -45t-176.5 -14q-254 0 -266 57l-139 563l-152 -561q-8 -37 -143 -53q-70 -6 -140 -6l-131 6 q-135 14 -143 51z" />
<glyph unicode="X" horiz-adv-x="1398" d="M37 1413q-6 10 85 19.5t154 9.5q258 0 283 -74l141 -344l162 354q25 61 256 62q59 0 146.5 -9.5t87.5 -17.5l-348 -708l360 -678q6 -10 -88 -19.5t-160 -9.5q-260 0 -285 70l-153 391l-139 -404q-20 -57 -263 -57q-59 0 -147 8q-81 7 -81 21q0 1 1 2l320 708z" />
<glyph unicode="Y" horiz-adv-x="1259" d="M-23 1405q-1 1 -1 2q0 11 86 21q92 12 155 12q252 0 277 -74l149 -418l172 418q27 72 262 72q59 0 140 -8.5t75 -20.5l-426 -856v-500q0 -35 -112 -49q-57 -8 -112.5 -8t-111.5 6q-113 14 -112 51v488z" />
<glyph unicode="Z" horiz-adv-x="1153" d="M78 278.5q0 30.5 6 38.5l479 744h-407q-35 0 -50 94q-6 39 -6 86t11 98q18 94 61 95h758q125 0 162 -228q8 -49 8 -71l-479 -727h374h4q45 0 64 -99q8 -47 8 -98t-12 -109q-23 -102 -70 -102h-796q-18 0 -66.5 124t-48.5 154.5z" />
<glyph unicode="[" horiz-adv-x="788" d="M164 -178v1753q0 59 59 59h443q37 0 53 -59q8 -31 8 -59.5t-8 -59.5q-16 -59 -53 -59h-265v-1397h265q37 0 53 -59q8 -31 8 -59.5t-8 -59.5q-16 -59 -53 -60h-443q-59 0 -59 60z" />
<glyph unicode="\" horiz-adv-x="1202" d="M35 1487.5q0 11.5 10 32.5q18 37 98 73q29 14 44.5 14.5t30.5 -0.5t28 -20l956 -1661q4 -8 4 -20t-10 -33q-20 -41 -98 -76q-31 -14 -45 -14q-45 0 -56 22l-956 1661q-6 10 -6 21.5z" />
<glyph unicode="]" horiz-adv-x="788" d="M61.5 -118.5q-0.5 28.5 8.5 59.5q16 59 53 59h264v1397h-264q-37 0 -53 59q-8 31 -8.5 59.5t8.5 59.5q16 59 53 59h442q59 0 60 -59v-1753q0 -59 -60 -60h-442q-37 0 -53 60q-8 31 -8.5 59.5z" />
<glyph unicode="^" horiz-adv-x="1406" d="M90 873.5q0 21.5 14 35.5l525 473q29 29 51 29t43 -20l567 -476q12 -14 12.5 -35.5t-19 -65.5t-56.5 -71.5t-54.5 -27.5t-29.5 12l-459 414l-432 -420q-12 -12 -29.5 -12t-55.5 27.5t-57.5 71.5t-19.5 65.5z" />
<glyph unicode="_" horiz-adv-x="1302" d="M96 -188.5q0 28.5 8 59.5q16 59 54 59h972q37 0 54 -59q8 -31 8 -59.5t-8 -59.5q-17 -59 -54 -59h-972q-37 0 -54 59q-8 31 -8 59.5z" />
<glyph unicode="`" horiz-adv-x="716" d="M145 1268q0 68 39 128t60 60q6 0 340 -184q12 -12 12 -29q0 -61 -33 -110.5t-51 -49.5q-4 0 -356 156q-10 10 -11 29z" />
<glyph unicode="a" horiz-adv-x="1058" d="M29 338q0 334 399 334h113v20q0 53 -17.5 68.5t-81.5 15.5q-78 0 -221 -33q-57 102 -57 167t35 83q117 51 320.5 51t287.5 -95t84 -281v-324h70q35 0 54 -41t19 -112.5t-35.5 -141t-97.5 -69.5q-111 0 -178 59q-31 25 -47 59q-93 -118 -290 -118h-3q-150 0 -252 106.5 t-102 251.5zM385 367q0 -45 24.5 -69t62.5 -24t69 31v158h-58q-98 0 -98 -96z" />
<glyph unicode="b" horiz-adv-x="1064" d="M102 88v1339q0 25 177.5 25t177.5 -27v-397q88 16 125 16q430 0 430 -493q0 -274 -132 -422.5t-375 -148.5t-403 108zM457 311q29 -12 60.5 -12t64.5 25q57 41 57 190q0 211 -115 211q-35 0 -67 -23v-391z" />
<glyph unicode="c" horiz-adv-x="868" d="M53 502.5q0 242.5 130 392t346 149.5t300 -104q19 -24 19 -70q0 -43 -17 -104q-37 -131 -96 -152q-8 -2 -23.5 -2t-37.5 25q-80 80 -128 80t-83 -49t-35 -160q0 -201 152 -201q98 0 163 39q31 0 50.5 -105.5t19.5 -143.5t-10 -50q-108 -68 -295 -68q0 1 -2 1 q-188 0 -320.5 140t-132.5 382.5z" />
<glyph unicode="d" horiz-adv-x="1157" d="M53 515q0 253 127 391t318 138q55 0 112 -12v389q0 31 162 31q55 0 128 -7t73 -20v-1079h71q51 0 68 -92q4 -27 4 -73t-29 -111q-41 -90 -131 -90q-68 0 -120 26.5t-70 54.5l-18 27q-112 -109 -281 -109q-1 1 -2 1q-170 0 -291 141t-121 394zM428 510q0 -104 33 -150.5 t72.5 -46.5t76.5 35v348q-34 21 -67 21q-115 0 -115 -207z" />
<glyph unicode="e" horiz-adv-x="995" d="M53 500.5q0 244.5 134.5 394t339 149.5t316 -104t111.5 -254q0 -332 -381 -332h-141q0 -61 34 -84.5t99 -23.5q143 0 273 65q2 2 18 -28q49 -88 49 -149t-39 -79q-128 -76 -329 -76q-1 1 -3 1q-202 0 -341.5 138t-139.5 382.5zM432 578h111h2q65 0 65 69q0 86 -84 86 q-39 0 -66.5 -23.5t-27.5 -68.5v-63z" />
<glyph unicode="f" horiz-adv-x="768" d="M41 888q0 136 31 136h100v45q0 217 91 300t255 83t289 -59q16 -6 16 -44t-34.5 -122t-59.5 -97q-70 43 -143 44q-80 0 -80 -107v-43h170q37 0 37 -131q0 -143 -47 -143h-131v-725q0 -25 -181.5 -25t-181.5 25v727h-100q-31 0 -31 136z" />
<glyph unicode="g" horiz-adv-x="1056" d="M53 507q0 251 142.5 393t379 142t390.5 -104v-1020q0 -152 -123 -232.5t-315.5 -80.5t-344.5 49q-20 49 -20 88q0 131 43 192q137 -59 293 -59q113 0 112 80v61q-88 -16 -141 -16q-199 0 -307.5 128t-108.5 379zM426 502q0 -129 53 -168q35 -27 70 -27t61 6v389 q-24 7 -47 7q-137 0 -137 -207z" />
<glyph unicode="h" horiz-adv-x="1026" d="M92 25v1402q0 14 63.5 20.5t106.5 6.5q172 0 172 -37v-409q112 34 171 34h3q156 0 246 -82.5t90 -308.5v-635q0 -18 -160 -18q-180 6 -180 20v603q0 100 -65 100q-45 0 -105 -43v-664q0 -18 -171 -18t-171 29z" />
<glyph unicode="i" horiz-adv-x="559" d="M92 10v1006q0 14 187.5 14t187.5 -12v-1006q0 -16 -187.5 -16t-187.5 14zM92 1137v295q0 20 187.5 20t187.5 -12v-301q1 -15 -187 -15h-14q-174 0 -174 13z" />
<glyph unicode="j" horiz-adv-x="555" d="M-242 -219q0 61 21 102q18 -2 51 -2q150 0 206 47.5t56 143.5v944q0 12 185.5 12t185.5 -10v-1092q0 -152 -126 -240.5t-314 -88.5q-264 0 -265 184zM92 1137v295q0 20 185.5 20t185.5 -12v-301q0 -14 -185.5 -14t-185.5 12z" />
<glyph unicode="k" horiz-adv-x="1087" d="M92 12v1405q0 33 187 33q174 -6 174 -27v-786l202 375q14 31 169 31q3 -1 5 -1q160 0 205 -20l-266 -434l307 -576q4 -8 -76.5 -13t-134.5 -5q-197 0 -211 18l-202 455v-453q0 -27 -173 -27q-2 1 -6 1q-180 0 -180 24z" />
<glyph unicode="l" horiz-adv-x="557" d="M92 14v1395q0 31 199 31q174 -6 174 -21v-1403q0 -18 -209 -18q-164 2 -164 16z" />
<glyph unicode="m" horiz-adv-x="1613" d="M41 825q0 63 25 129q33 90 106.5 90t142 -38.5t82.5 -73.5q126 113 281 113l1 -1q155 0 249 -96q111 96 266 96q338 0 338 -411v-623q0 -14 -175 -14t-175 18v596q0 102 -68 103q-37 0 -94 -45v-658q0 -14 -175 -14t-175 18v596q0 102 -68 103q-35 0 -92 -45v-656 q0 -20 -175 -20t-175 22v670h-51q-68 0 -68 141z" />
<glyph unicode="n" horiz-adv-x="1128" d="M41 827q0 63 25 127q37 90 114.5 90t139 -36.5t81.5 -73.5q128 111 306 111l1 -1q178 0 258.5 -96t80.5 -315v-615q0 -25 -169 -25q-2 1 -6 1q-176 0 -176 24v592q0 102 -71 103q-20 0 -57.5 -17.5t-47.5 -25.5v-658q0 -14 -147 -14q-205 6 -205 22v664h-53q-53 0 -70 90 q-4 27 -4 53z" />
<glyph unicode="o" horiz-adv-x="1050" d="M53 512q0 250 128 391t345 141t344 -141t127 -391t-127 -391t-344 -141t-345 141t-128 391zM412 514q0 -188 115.5 -188t115.5 188t-115.5 188t-115.5 -188z" />
<glyph unicode="p" horiz-adv-x="1136" d="M39 846q0 45 29 106q41 90 131 90q59 0 109 -27.5t69.5 -51t19.5 -27.5q137 106 297 106t274.5 -123.5t114.5 -383t-114.5 -401.5t-290.5 -142q-80 0 -146 8v-373q0 -14 -175 -14t-175 14v1055h-69q-49 0 -68 90q-6 29 -6 74zM549 299q35 -4 56.5 -4h33.5q84 8 84 215 q-1 174 -107 174q-35 0 -67 -22v-363z" />
<glyph unicode="q" horiz-adv-x="1046" d="M53 526.5q0 243.5 135.5 380.5t371 137t394.5 -108v-1305q0 -27 -170 -27h-6q-176 1 -176 27v377q-82 -16 -139 -16q-188 0 -299 145.5t-111 389zM420 507q0 -136 55 -173q31 -20 63 -20q2 -1 3 -1q31 0 61 11v381q-31 8 -67.5 8t-67.5 -29q-47 -41 -47 -177z" />
<glyph unicode="r" horiz-adv-x="811" d="M41 823q0 221 131 221q92 0 153.5 -56t61.5 -128q43 84 115.5 134t148.5 50q119 0 144 -61q6 -16 6 -48t-19.5 -114t-40 -118.5t-24.5 -36.5t-38 15t-61 15q-78 0 -77 -123v-571q0 -14 -187 -14q-186 4 -186 16v680h-55q-33 0 -52.5 40t-19.5 99z" />
<glyph unicode="s" horiz-adv-x="921" d="M51 164q0 57 27.5 121t56.5 84q166 -100 262 -101q61 0 62 43q0 31 -107 80q-256 104 -256 342q0 152 110.5 231.5t265.5 79.5t262.5 -32.5t107.5 -85.5q0 -45 -44 -119t-61 -80q-88 49 -190 49q-55 0 -55 -39q0 -25 21.5 -42t78.5 -42.5t95 -46t85 -57.5q98 -78 98 -203 q0 -164 -108.5 -265t-327.5 -101q-145 0 -264 49t-119 135z" />
<glyph unicode="t" horiz-adv-x="753" d="M41 881q0 37 7 90t30 53h108v180q0 41 173 41t173 -33v-131l3 -57h174q35 0 35 -139q0 -148 -35 -148h-146v-725q0 -24 -159 -24h-13q-205 8 -205 26v725h-104q-41 0 -41 142z" />
<glyph unicode="u" horiz-adv-x="1114" d="M82 408v604q0 23 169 23q4 -1 7 -1q176 0 176 -22v-598q0 -102 66 -103q49 0 110 43v658q0 20 174 20t174 -20v-672h54q69 0 69 -129q0 -72 -28 -141q-41 -90 -111 -90q-137 0 -203 112l-2 -2q-124 -110 -265 -110h-3q-199 0 -293 99t-94 329z" />
<glyph unicode="v" horiz-adv-x="1067" d="M12 1018q-6 16 191.5 16t197.5 -10l148 -696l110 686q6 18 203 18q199 0 193 -16l-289 -1002q-14 -20 -243.5 -20t-246.5 31z" />
<glyph unicode="w" horiz-adv-x="1540" d="M23 1024q-6 12 176 12q180 -2 180 -8l94 -692l170 684q4 12 135 12t135 -12l168 -676l74 670q0 18 113 18q254 0 250 -16l-201 -996q-6 -33 -221 -33q-2 1 -6 1q-222 0 -228 32l-84 459l-104 -459q-6 -31 -227 -31q-3 1 -7 1q-228 0 -235 37z" />
<glyph unicode="x" horiz-adv-x="1140" d="M31 999q0 12 62.5 22.5t141 10.5t150.5 -7t80 -19l108 -332l134 344q8 16 102 16q307 0 299 -22l-250 -518l252 -471q0 -12 -123 -20.5t-174 -8.5q-129 0 -137 26l-111 342l-127 -356q-4 -14 -116.5 -14t-200.5 8q-81 7 -81 18q0 1 1 2l231 472q-242 506 -241 507z" />
<glyph unicode="y" horiz-adv-x="1099" d="M20 1014q0 23 180 23q4 0 8 -1q187 0 193 -20l148 -484l141 488q8 16 127 16q261 0 261 -24q0 -1 -1 -2l-481 -1370q-2 -12 -112 -12q-6 -1 -13 -1q-102 0 -191 7q-94 8 -90 18l179 430z" />
<glyph unicode="z" horiz-adv-x="929" d="M51 226.5q0 21.5 4 25.5l391 457l-358 -13q-14 0 -14 88q0 240 39 240h653q14 0 63.5 -90t49.5 -101.5t-2 -13.5l-398 -500l357 25q32 0 32 -137v-8q0 -55 -10 -127t-35 -72h-655q-31 0 -74 102.5t-43 124z" />
<glyph unicode="{" horiz-adv-x="741" d="M61 653.5q0 96.5 33 110.5q129 49 129 172v522q0 139 152 266q18 10 41 11q76 0 137 -68q23 -27 22.5 -43t-10.5 -27q-104 -104 -104 -170v-512q0 -152 -119 -270q119 -114 119 -231v-543q0 -84 104 -168q12 -10 12.5 -29.5t-56 -65.5t-113.5 -46q-27 0 -41 12 q-43 41 -69 70.5t-50.5 91t-24.5 135.5v491q0 49 -36.5 100.5t-92.5 76.5q-33 18 -33 114.5z" />
<glyph unicode="|" horiz-adv-x="1286" d="M518 -389v2218q0 37 60 53q29 8 59 8l59 -8q60 -16 60 -53v-2218q0 -37 -60 -53q-29 -8 -59 -9l-59 9q-59 16 -60 53z" />
<glyph unicode="}" horiz-adv-x="741" d="M166 -319q0 14 10 22q107 86 107 168v543q0 119 116 231q-119 119 -118 270v512q0 66 -105 170q-10 10 -10 27.5t28.5 51.5t67.5 46.5t61.5 12.5t43.5 -11q158 -131 157 -266v-522q0 -125 123 -172q33 -14 33 -92q0 -115 -33 -133q-55 -25 -89 -75t-34 -102v-491 q0 -74 -26.5 -136.5t-51 -90t-71.5 -70.5q-16 -14 -47 -14t-96.5 40t-65.5 81z" />
<glyph unicode="~" horiz-adv-x="940" d="M45 609.5q0 19.5 6 25.5q129 129 266 129q63 0 143.5 -38t123.5 -38q76 2 141 80q4 2 10 2q25 0 68 -57.5t43 -77.5q0 -59 -96 -127q-66 -43 -125 -43h-15q-78 0 -172 41t-115.5 41t-36 -4t-25.5 -7.5t-26.5 -13.5t-23.5 -15t-28.5 -21.5t-30.5 -22.5q-39 10 -73 68.5 t-34 78z" />
<glyph unicode="&#xa1;" horiz-adv-x="587" d="M92 -391l41 985q0 12 146.5 12t146.5 -10l41 -985q0 -16 -187.5 -16.5t-187.5 14.5zM92 715v295q0 20 189.5 20t189.5 -12v-301q0 -14 -189.5 -14.5t-189.5 12.5z" />
<glyph unicode="&#xa2;" horiz-adv-x="1081" d="M72 726q0 275 136 424.5t359 168.5v129q0 39 57.5 39t57.5 -39v-129q119 -8 203 -45t84 -91.5t-32 -123t-65 -109.5l-32 -43q-53 31 -158 37v-422q113 8 192 45q41 -55 70 -128.5t29 -140.5t-82 -111t-209 -52v-127q0 -43 -57.5 -43t-57.5 43v125q-225 12 -360 165 t-135 428zM420 735q0 -176 147 -209v414q-147 -29 -147 -205z" />
<glyph unicode="&#xa3;" horiz-adv-x="1003" d="M61.5 698q-0.5 23 4.5 43q12 43 38 43h123q-4 6 -21.5 34t-24.5 39t-21.5 38t-21.5 46.5t-15 45.5q-16 47 -17 117q0 350 510 350q129 0 227.5 -36t98.5 -100.5t-29.5 -165.5t-54.5 -122q-82 43 -184 43q-195 0 -195 -125q0 -80 92 -164h226q41 0 41 -86t-41 -86h-189 q-12 -166 -76 -262h353q37 0 53 -88q6 -43 6 -87t-6 -87q-14 -88 -51 -88h-701q-49 29 -90 127q-20 49 -20 84t20 55q168 168 185 346h-175q-29 0 -40 43q-4 20 -4.5 43z" />
<glyph unicode="&#xa4;" horiz-adv-x="1490" d="M178 1124.5q0 14.5 18.5 44t49 49t45 19.5t24.5 -10l166 -166q111 78 245 78t247 -76l164 164q8 10 22.5 10t44 -17.5t49 -49t19.5 -46t-8 -22.5l-166 -164q74 -109 73.5 -242t-77.5 -247l161 -162q18 -18 -6 -57.5t-53 -57.5t-43 -18t-23 10l-161 162q-115 -74 -244 -74 t-238 74l-161 -162q-10 -10 -24.5 -10t-45.5 18t-53.5 58t-3.5 59l161 162q-74 115 -73.5 245.5t69.5 237.5l-168 168q-10 8 -10 22.5zM481 696.5q0 -98.5 72 -174.5q72 -72 174 -71.5t173 71t71 173t-71 175t-169 72.5q-102 0 -176 -73.5t-74 -172z" />
<glyph unicode="&#xa5;" horiz-adv-x="1349" d="M0 1425q-10 16 88 23.5t150 7.5q211 0 254 -70l186 -321l184 321q37 70 268 70q51 0 128 -8t71 -18l-371 -586h203q31 0 43 -37q8 -20 8 -39.5t-6 -38.5q-12 -37 -45 -37h-274v-125h274q31 0 43 -32q8 -16 8 -33t-6 -33q-12 -33 -45 -33h-274v-401q0 -35 -113 -51 q-57 -6 -112.5 -6.5t-110.5 6.5q-113 14 -113 51v401h-252q-47 0 -47 65.5t47 65.5h252v125h-252q-47 0 -47 76t47 76h187z" />
<glyph unicode="&#xa6;" horiz-adv-x="849" d="M313 -389v784q0 37 60 54q29 8 59 8l60 -8q59 -17 59 -54v-784q0 -37 -59 -53q-29 -8 -60 -9l-59 9q-59 16 -60 53zM313 727v729q0 37 60 53q29 8 59 9l60 -9q59 -16 59 -53v-729q0 -37 -59 -53q-29 -8 -60 -8l-59 8q-59 16 -60 53z" />
<glyph unicode="&#xa7;" horiz-adv-x="1263" d="M82 -204q0 77 32.5 152.5t71.5 100.5q59 -35 175 -86t209.5 -51t93.5 61q0 31 -56.5 59.5t-135.5 61.5t-159 76t-136 120t-56 177q0 188 160 295q-152 96 -160 276q0 186 144.5 301t385.5 115q160 0 297 -28.5t142 -75.5q0 -74 -49.5 -176.5t-69.5 -112.5 q-184 55 -295 55t-111 -67q0 -74 201 -162q84 -37 168 -80t142.5 -111.5t58.5 -150.5q0 -188 -160 -291q63 -41 111.5 -112.5t48.5 -141.5q0 -190 -131.5 -307t-409.5 -121q-295 0 -432 92q-80 55 -80 132zM481 532q0 -53 72 -103t130 -50t79.5 23.5t21.5 70.5t-76.5 97.5 t-138.5 50.5q-88 0 -88 -89z" />
<glyph unicode="&#xa8;" horiz-adv-x="935" d="M78 1128v287q0 18 142 18.5t142 -10.5v-293q0 -12 -142 -12t-142 10zM549 1128v287q0 18 142.5 18.5t142.5 -10.5v-293q0 -12 -142.5 -12t-142.5 10z" />
<glyph unicode="&#xa9;" horiz-adv-x="1419" d="M172 950.5q0 229.5 161 390t390 160.5t390 -160.5t161 -390t-161 -390.5t-390 -161t-390 161t-161 390.5zM291 954.5q0 -180.5 126 -308.5t309 -128t311 129t128 308.5t-128 308.5t-308 129t-309 -129t-129 -309.5zM442 954.5q0 143.5 88 225.5t222 82q66 0 118 -18.5 t52 -49.5q0 -20 -13.5 -58t-31 -65t-29.5 -18q-35 20 -80 20t-73.5 -28.5t-28.5 -83.5q0 -113 116 -113q59 0 82 22q10 6 27 -20q41 -68 41 -123q0 -35 -54.5 -55.5t-127.5 -20.5q-135 0 -221.5 80t-86.5 223.5z" />
<glyph unicode="&#xaa;" horiz-adv-x="1036" d="M164 961q0 201 246 200h96v37q0 35 -15.5 45t-61.5 10.5t-136 -22.5q-39 59 -39 108.5t22 55.5q76 37 223.5 37t202 -63.5t54.5 -188.5v-215h49q47 0 47 -95q0 -57 -23.5 -102t-64.5 -45q-78 0 -117 39q-18 12 -33 39q-66 -78 -215 -78q-100 0 -167.5 70.5t-67.5 167.5z M399 965q0 -59 58 -60q25 0 49 19v106h-41q-66 1 -66 -65z" />
<glyph unicode="&#xab;" horiz-adv-x="1583" d="M182.5 526q-0.5 23 28.5 52l344 403q12 12 31.5 12t61.5 -24.5t65.5 -64.5t23.5 -59.5t-14 -31.5l-270 -291l274 -295q14 -12 14 -31.5t-23.5 -59.5t-65.5 -64.5t-61.5 -24.5t-31.5 12l-356 424q-20 20 -20.5 43zM797 526q0 23 28 52l344 403q12 12 32 12t62 -24.5 t65.5 -64.5t23.5 -59.5t-15 -31.5l-270 -291l274 -295q14 -12 14.5 -31.5t-23 -59.5t-65.5 -64.5t-61.5 -24.5t-31.5 12l-357 424q-20 20 -20 43z" />
<glyph unicode="&#xac;" horiz-adv-x="1255" d="M137 569.5q0 28.5 8 59.5q16 59 54 59h762q84 0 83 -78v-444q0 -43 -114 -43q-35 0 -84 10t-49 39l4 279h-602q-37 0 -54 59q-8 31 -8 59.5z" />
<glyph unicode="&#xad;" horiz-adv-x="929" d="M96 508.5q0 28.5 8 58.5q16 59 54 60h604q37 0 53 -60q8 -31 8 -59.5t-8 -58.5q-16 -60 -53 -60h-604q-37 0 -54 60q-8 31 -8 59.5z" />
<glyph unicode="&#xae;" horiz-adv-x="1435" d="M172 950.5q0 229.5 161 390t390 160.5t390 -160.5t161 -390t-161 -390.5t-390 -161t-390 161t-161 390.5zM291 954.5q0 -180.5 126 -308.5t309 -128t311 129t128 308.5t-128 308.5t-308 129t-309 -129t-129 -309.5zM500 678v551q0 31 30 31h211q232 -1 232 -177 q0 -104 -86 -163l143 -181q-8 -16 -36.5 -40.5t-58.5 -37t-48 -12.5q-74 0 -111 84l-61 137h-17v-192q0 -25 -99 -25t-99 25zM698 989h4q80 0 80 68q0 55 -67 55h-17v-123z" />
<glyph unicode="&#xb0;" horiz-adv-x="790" d="M82 1077q0 170 83 262.5t229.5 92.5t229.5 -93.5t83 -261.5t-83 -261t-229.5 -93t-229.5 92t-83 262zM221 1077.5q0 -96.5 46 -148.5t127 -52t126 52t45 148.5t-45 148.5t-126 52t-127 -52t-46 -148.5z" />
<glyph unicode="&#xb1;" horiz-adv-x="1218" d="M137 317.5q0 30.5 8 59.5q17 59 54 59h809q37 0 53 -59q8 -29 8 -59.5t-8 -59.5q-16 -59 -53 -59h-809q-37 0 -54 59q-8 29 -8 59.5zM137 856.5q0 28.5 8 58.5q16 59 54 60h286v282q0 37 60 54q29 8 59 8l60 -8q59 -16 59 -54v-282h285q37 0 53 -60q8 -31 8 -59.5 t-8 -58.5q-16 -59 -53 -60h-285v-207q0 -18 -119 -18t-119 18v207h-286q-37 0 -54 60q-8 31 -8 59.5z" />
<glyph unicode="&#xb2;" horiz-adv-x="720" d="M113 1335q0 16 9 37t86 43.5t165 22.5q221 0 221 -197q0 -150 -184 -309l206 8q4 -37 5 -90q0 -115 -60 -115h-389q-35 0 -49 82q-6 43 -6 65.5t6 28.5q154 121 187.5 166t33.5 81t-14.5 52.5t-57.5 16.5t-100 -37q-59 88 -59 145z" />
<glyph unicode="&#xb3;" horiz-adv-x="624" d="M59 815q0 39 20.5 83t33.5 60q53 -35 104 -34q98 0 98 63q0 31 -19.5 42t-68.5 11h-20q-12 0 -21.5 23.5t-9.5 46.5t19 23l36 2q66 4 66 57q0 41 -63.5 41t-112.5 -21q-8 12 -25.5 56.5t-17.5 81t73.5 60.5t174 24t153.5 -45.5t53 -114.5q0 -98 -104 -162 q59 -27 91 -63.5t32 -115.5t-63.5 -135.5t-170 -56.5t-182.5 21.5t-76 52.5z" />
<glyph unicode="&#xb4;" horiz-adv-x="731" d="M147 1220.5q0 39.5 13 51.5q334 184 340 184q20 0 51 -49q47 -72 47 -135q0 -23 -10 -33q-353 -156 -357 -156q-18 0 -47 41q-37 57 -37 96.5z" />
<glyph unicode="&#xb5;" horiz-adv-x="1171" d="M82 -326v1338q0 23 176 22.5t176 -22.5v-598q0 -102 66 -103q49 0 110 43v658q0 20 174 20t174 -20v-672h54q70 0 69 -133q0 -68 -28 -137q-41 -90 -111 -90q-137 0 -203 112q-49 -49 -114.5 -67.5t-106.5 -18.5t-84 12v-344q0 -33 -88 -45q-43 -6 -84 -6l-92 8 q-88 12 -88 43z" />
<glyph unicode="&#xb6;" horiz-adv-x="1597" d="M61 1021q0 185 114 299t327 114h878q41 0 60 -82q10 -43 10 -84t-8 -80q-18 -82 -62 -82h-102v-1063q0 -39 -102 -55q-49 -6 -99 -6l-106 8q-102 16 -103 53v1001q0 29 -41 41q-20 4 -40.5 4.5t-41.5 -4.5q-43 -12 -43 -41v-1001q0 -35 -79 -49q-41 -6 -82 -6l-82 6 q-80 14 -80 49v557q-154 0 -236 118t-82 303z" />
<glyph unicode="&#xb7;" horiz-adv-x="632" d="M119 442v369q0 18 193.5 18t193.5 -10v-375q0 -14 -193.5 -14t-193.5 12z" />
<glyph unicode="&#xb8;" horiz-adv-x="823" d="M207 -246q0 111 55 111h68q43 0 55 11t12 54v113h125q78 -168 78 -254q0 -27 -6 -45q-31 -92 -193 -92q-90 0 -161 33q-33 14 -33 69z" />
<glyph unicode="&#xb9;" horiz-adv-x="579" d="M84 1314.5q0 108.5 31 108.5h321q37 1 37 -24v-656q0 -18 -126 -18t-126 18v465l-106 -2q-31 0 -31 108.5z" />
<glyph unicode="&#xba;" horiz-adv-x="749" d="M82 1077q0 170 83 262.5t229.5 92.5t229.5 -93.5t83 -261.5t-83 -261t-229.5 -93t-229.5 92t-83 262zM313 1079.5q0 -104.5 82 -104.5q33 0 57.5 23.5t24.5 80t-24.5 81t-57.5 24.5q-82 0 -82 -104.5z" />
<glyph unicode="&#xbb;" horiz-adv-x="1499" d="M182 195.5q0 19.5 15 31.5l274 295l-270 291q-14 12 -14.5 31.5t23 59.5t64.5 64.5t61.5 24.5t33.5 -12l344 -403q29 -29 28.5 -51.5t-20.5 -43.5l-356 -424q-14 -14 -34 -14t-61 24.5t-64.5 65.5t-23.5 60.5zM797 195.5q0 19.5 14 31.5l274 295l-270 291 q-14 12 -14 31.5t23.5 59.5t64.5 64.5t61.5 24.5t32.5 -12l344 -403q29 -29 29 -51.5t-21 -43.5l-356 -424q-14 -14 -33.5 -14t-60.5 24.5t-64.5 65.5t-23.5 60.5z" />
<glyph unicode="&#xbc;" horiz-adv-x="1718" d="M166 1325.5q0 108.5 31 108.5h321q37 0 37 -25v-655q0 -18 -126 -18.5t-126 18.5v465l-106 -2q-31 0 -31 108.5zM344 71q0 17 8 29l805 1309q23 20 43 21q70 0 115 -50q25 -23 24.5 -40t-8.5 -29l-805 -1311q-20 -20 -41 -20q-70 0 -116 49q-25 25 -25 42zM975 279.5 q0 19.5 6 29.5l217 385q6 14 149.5 14.5t143.5 -3.5l2 -398h63q12 0 12.5 -74.5t-12.5 -74.5h-63v-140q0 -25 -127 -24q-106 6 -106 22v138h-218q-25 18 -46 62t-21 63.5zM1182 305h116v209z" />
<glyph unicode="&#xbd;" horiz-adv-x="1736" d="M170 1325.5q0 108.5 31 108.5h321q37 0 37 -25v-655q0 -18 -126 -18.5t-126 18.5v465l-106 -2q-31 0 -31 108.5zM344 71q0 17 8 29l805 1309q23 20 43 21q70 0 115 -50q25 -23 24.5 -40t-8.5 -29l-805 -1311q-20 -20 -41 -20q-70 0 -116 49q-25 25 -25 42zM1092 600 q0 16 9 36.5t86 43t165 22.5q221 0 221 -196q0 -150 -184 -309l206 8q4 -37 4 -90q0 -115 -59 -115h-389q-35 0 -49 82q-6 43 -6 65.5t6 28.5q154 121 187.5 166t33.5 81t-14.5 52.5t-57.5 16.5t-100 -37q-59 88 -59 145z" />
<glyph unicode="&#xbe;" horiz-adv-x="1777" d="M141 815q0 39 20.5 83t33.5 60q53 -35 104 -34q98 0 98 63q0 31 -19.5 42t-68.5 11h-20q-12 0 -21.5 23.5t-9.5 46.5t18 23l37 2q66 4 66 57q0 41 -63.5 41t-112.5 -21q-8 12 -25.5 56.5t-17.5 81t73.5 60.5t174 24t153.5 -45.5t53 -114.5q0 -98 -104 -162 q59 -27 91 -63.5t32 -115.5t-63.5 -135.5t-170 -56.5t-182.5 21.5t-76 52.5zM344 71q0 17 8 29l805 1309q23 20 43 21q70 0 115 -50q25 -23 24.5 -40t-8.5 -29l-805 -1311q-20 -20 -41 -20q-70 0 -116 49q-25 25 -25 42zM975 279.5q0 19.5 6 29.5l217 385q6 14 149.5 14.5 t143.5 -3.5l2 -398h63q12 0 12.5 -74.5t-12.5 -74.5h-63v-140q0 -25 -127 -24q-106 6 -106 22v138h-218q-25 18 -46 62t-21 63.5zM1182 305h116v209z" />
<glyph unicode="&#xbf;" horiz-adv-x="1196" d="M133 -63q0 78 38 152.5t91 130.5t107 108q131 119 131 184v61q0 25 77 36.5t136 11.5q162 0 161 -39v-78q0 -92 -153 -236q-57 -53 -105.5 -120.5t-48.5 -122.5q0 -102 118 -102.5t237 77.5q78 -78 110 -176q10 -33 10 -58.5t-10 -48.5q-20 -53 -154.5 -100t-285.5 -47 q-229 0 -344 98.5t-115 268.5zM512 709v325q0 12 169 12.5t169 -10.5v-321q0 -16 -169 -16.5t-169 10.5z" />
<glyph unicode="&#xc0;" d="M29 8l364 1407q0 16 280.5 16.5t280.5 -16.5l353 -1409q0 -14 -94.5 -22.5t-149.5 -8.5q-178 0 -193 58l-65 284h-326l-61 -274q-12 -63 -197 -63q-98 0 -145 11t-47 17zM444 1677q0 68 39 128.5t60 60.5q6 0 340 -185q12 -12 12 -28q0 -61 -33 -110.5t-51 -49.5 q-4 0 -356 156q-10 10 -11 28zM530 578h215l-92 423h-12z" />
<glyph unicode="&#xc1;" d="M29 8l364 1407q0 16 280.5 16.5t280.5 -16.5l353 -1409q0 -14 -94.5 -22.5t-149.5 -8.5q-178 0 -193 58l-65 284h-326l-61 -274q-12 -63 -197 -63q-98 0 -145 11t-47 17zM444 1630q0 39 13 51q334 184 340 185q20 0 51 -49q47 -72 47 -136q0 -23 -10 -32 q-353 -156 -357 -156q-18 0 -47 41q-37 57 -37 96zM530 578h215l-92 423h-12z" />
<glyph unicode="&#xc2;" d="M29 8l364 1407q0 16 280.5 16.5t280.5 -16.5l353 -1409q0 -14 -94.5 -22.5t-149.5 -8.5q-178 0 -193 58l-65 284h-326l-61 -274q-12 -63 -197 -63q-98 0 -145 11t-47 17zM319 1630q0 41 13 51l315 172q14 8 22.5 8.5t22.5 -8.5l316 -172q12 -10 12 -28q0 -63 -35 -116.5 t-53 -53.5q-4 0 -262 151q-256 -151 -260 -151q-18 0 -50 45q-41 61 -41 102zM530 578h215l-92 423h-12z" />
<glyph unicode="&#xc3;" d="M29 8l364 1407q0 16 280.5 16.5t280.5 -16.5l353 -1409q0 -14 -94.5 -22.5t-149.5 -8.5q-178 0 -193 58l-65 284h-326l-61 -274q-12 -63 -197 -63q-98 0 -145 11t-47 17zM272 1689.5q0 18.5 7 24.5q129 129 266 129q63 0 143 -38t123 -38q76 2 141 80q4 2 11 2 q25 0 67.5 -57t42.5 -78q0 -59 -98 -125q-63 -45 -123 -45h-14q-78 0 -172.5 41t-116 41t-35.5 -4t-25.5 -7t-27 -13.5t-23.5 -15.5t-28.5 -21.5t-30.5 -22.5q-39 10 -73 69.5t-34 78zM530 578h215l-92 423h-12z" />
<glyph unicode="&#xc4;" d="M29 8l364 1407q0 16 280.5 16.5t280.5 -16.5l353 -1409q0 -14 -94.5 -22.5t-149.5 -8.5q-178 0 -193 58l-65 284h-326l-61 -274q-12 -63 -197 -63q-98 0 -145 11t-47 17zM293 1538v287q0 18 142.5 18t142.5 -10v-293q0 -12 -142.5 -12t-142.5 10zM530 578h215l-92 423 h-12zM764 1538v287q0 18 142.5 18t142.5 -10v-293q0 -12 -142.5 -12t-142.5 10z" />
<glyph unicode="&#xc5;" d="M29 8l364 1407q0 16 280.5 16.5t280.5 -16.5l353 -1409q0 -14 -94.5 -22.5t-149.5 -8.5q-178 0 -193 58l-65 284h-326l-61 -274q-12 -63 -197 -63q-98 0 -145 11t-47 17zM481 1669q0 78 53.5 131t131 53t131 -53t53.5 -131t-53.5 -131t-131 -53t-131 53t-53.5 131z M530 578h215l-92 423h-12zM545 1671q0 -51 35.5 -87t87 -36t87.5 36t36 87t-36 87t-87.5 36t-87 -36t-35.5 -87z" />
<glyph unicode="&#xc6;" horiz-adv-x="1878" d="M70 8l667 1426h965q43 0 43 -183.5t-43 -183.5h-379v-203h264q39 0 39 -143q0 -43 -9 -101.5t-34 -58.5h-260v-205h377q35 0 47 -90q6 -39 6 -83t-12 -113.5t-41 -69.5h-692q-63 0 -64 66v253h-326l-131 -274q-31 -66 -206 -65q-31 0 -117 5t-94 23zM733 584h215v489h-12 z" />
<glyph unicode="&#xc7;" horiz-adv-x="1118" d="M31 722q0 333 179 531.5t447 198.5q150 0 263.5 -42t113.5 -113.5t-54 -177t-91 -105.5q-10 0 -23.5 11t-61.5 24.5t-83 13.5q-119 0 -191.5 -84t-72.5 -257t74.5 -257t189.5 -84q47 0 105.5 13.5t82.5 37.5q4 4 16.5 4t46.5 -46t62.5 -120.5t28.5 -115.5 q0 -72 -102.5 -118t-253.5 -54q59 -141 59 -215q0 -135 -201 -136q-92 0 -159 33q-35 10 -35 64q0 14 2 32q12 84 55 84h68q43 0 55 11.5t12 54.5v76q-238 31 -385 217t-147 519z" />
<glyph unicode="&#xc8;" horiz-adv-x="999" d="M92 63v1317q0 53 47 54h733q43 0 43 -181.5t-43 -181.5h-378v-207h264q39 0 39 -143q0 -43 -9.5 -101.5t-33.5 -58.5h-260v-205h376q35 0 48 -90q6 -39 6 -83t-12.5 -113.5t-41.5 -69.5h-700q-78 0 -78 63zM274 1677q0 68 39 128.5t60 60.5q6 0 340 -185q12 -12 12 -28 q0 -61 -33 -110.5t-51 -49.5q-4 0 -356 156q-10 10 -11 28z" />
<glyph unicode="&#xc9;" horiz-adv-x="999" d="M92 63v1317q0 53 47 54h733q43 0 43 -181.5t-43 -181.5h-378v-207h264q39 0 39 -143q0 -43 -9.5 -101.5t-33.5 -58.5h-260v-205h376q35 0 48 -90q6 -39 6 -83t-12.5 -113.5t-41.5 -69.5h-700q-78 0 -78 63zM274 1630q0 39 13 51q334 184 340 185q20 0 51 -49 q47 -72 47 -136q0 -23 -10 -32q-353 -156 -357 -156q-18 0 -47 41q-37 57 -37 96z" />
<glyph unicode="&#xca;" horiz-adv-x="999" d="M92 63v1317q0 53 47 54h733q43 0 43 -181.5t-43 -181.5h-378v-207h264q39 0 39 -143q0 -43 -9.5 -101.5t-33.5 -58.5h-260v-205h376q35 0 48 -90q6 -39 6 -83t-12.5 -113.5t-41.5 -69.5h-700q-78 0 -78 63zM149.5 1630q0.5 41 12.5 51l315 172q14 8 22.5 8.5t22.5 -8.5 l316 -172q12 -10 12 -28q0 -63 -35 -116.5t-53 -53.5q-4 0 -262 151q-256 -151 -260 -151q-18 0 -50 45q-41 61 -40.5 102z" />
<glyph unicode="&#xcb;" horiz-adv-x="999" d="M92 63v1317q0 53 47 54h733q43 0 43 -181.5t-43 -181.5h-378v-207h264q39 0 39 -143q0 -43 -9.5 -101.5t-33.5 -58.5h-260v-205h376q35 0 48 -90q6 -39 6 -83t-12.5 -113.5t-41.5 -69.5h-700q-78 0 -78 63zM121 1538v287q0 18 142.5 18t142.5 -10v-293q0 -12 -142.5 -12 t-142.5 10zM592 1538v287q0 18 142.5 18t142.5 -10v-293q0 -12 -142.5 -12t-142.5 10z" />
<glyph unicode="&#xcc;" horiz-adv-x="884" d="M37 1257.5q0 45.5 8 88.5q14 88 49 88h688q35 0 49 -88q6 -43 6.5 -88.5t-6.5 -88.5q-14 -88 -49 -88h-137v-729h143q35 0 50 -88q6 -43 6 -88t-6 -88q-14 -88 -50 -88h-690q-35 0 -49 88q-6 43 -6 88t6 88q14 88 49 88h142v729h-146q-35 0 -49 88q-8 43 -8 88.5z M217 1677q0 68 39 128.5t59 60.5q6 0 340 -185q12 -12 13 -28q0 -61 -33 -110.5t-51 -49.5q-5 0 -357 156q-10 10 -10 28z" />
<glyph unicode="&#xcd;" horiz-adv-x="884" d="M37 1257.5q0 45.5 8 88.5q14 88 49 88h688q35 0 49 -88q6 -43 6.5 -88.5t-6.5 -88.5q-14 -88 -49 -88h-137v-729h143q35 0 50 -88q6 -43 6 -88t-6 -88q-14 -88 -50 -88h-690q-35 0 -49 88q-6 43 -6 88t6 88q14 88 49 88h142v729h-146q-35 0 -49 88q-8 43 -8 88.5z M217 1630q0 39 12 51q334 184 340 185q20 0 52 -49q47 -72 47 -136q0 -23 -11 -32q-352 -156 -356 -156q-18 0 -47 41q-37 57 -37 96z" />
<glyph unicode="&#xce;" horiz-adv-x="884" d="M37 1257.5q0 45.5 8 88.5q14 88 49 88h688q35 0 49 -88q6 -43 6.5 -88.5t-6.5 -88.5q-14 -88 -49 -88h-137v-729h143q35 0 50 -88q6 -43 6 -88t-6 -88q-14 -88 -50 -88h-690q-35 0 -49 88q-6 43 -6 88t6 88q14 88 49 88h142v729h-146q-35 0 -49 88q-8 43 -8 88.5z M92 1630q0 41 12 51l316 172q14 8 22.5 8.5t22.5 -8.5l315 -172q12 -10 13 -28q0 -63 -35 -116.5t-53 -53.5q-4 0 -263 151q-256 -151 -260 -151q-18 0 -49 45q-41 61 -41 102z" />
<glyph unicode="&#xcf;" horiz-adv-x="884" d="M37 1257.5q0 45.5 8 88.5q14 88 49 88h688q35 0 49 -88q6 -43 6.5 -88.5t-6.5 -88.5q-14 -88 -49 -88h-137v-729h143q35 0 50 -88q6 -43 6 -88t-6 -88q-14 -88 -50 -88h-690q-35 0 -49 88q-6 43 -6 88t6 88q14 88 49 88h142v729h-146q-35 0 -49 88q-8 43 -8 88.5z M66 1538v287q0 18 142 18t142 -10v-293q0 -12 -142 -12t-142 10zM537 1538v287q0 18 142 18t142 -10v-293q0 -12 -142 -12t-142 10z" />
<glyph unicode="&#xd0;" horiz-adv-x="1269" d="M-26.5 733.5q-0.5 28.5 8.5 59.5q16 59 53 59h88v537q0 45 35 45h399q326 0 495 -164t169 -516q0 -754 -643 -754h-406q-49 0 -49 53v561h-88q-37 0 -53 60q-8 31 -8.5 59.5zM496 453q0 -43 7 -54.5t36 -11.5q145 0 207.5 82t62.5 278.5t-67.5 257t-204.5 60.5h-41v-213 h98q37 0 53 -59q8 -31 8 -59.5t-8 -59.5q-16 -60 -53 -60h-98v-161z" />
<glyph unicode="&#xd1;" horiz-adv-x="1345" d="M88 23v1402q0 31 158 31q61 0 144 -11t102 -42l337 -651v655q0 39 190.5 39t190.5 -39v-1382q0 -43 -187 -43t-204 30l-352 660v-649q0 -37 -189.5 -37t-189.5 37zM274 1689.5q0 18.5 7 24.5q129 129 266 129q63 0 143 -38t123 -38q76 2 141 80q4 2 11 2q25 0 67.5 -57 t42.5 -78q0 -59 -96 -125q-66 -45 -125 -45h-14q-78 0 -172.5 41t-116 41t-35.5 -4t-25.5 -7t-26.5 -13.5t-23.5 -15.5t-29 -21.5t-30.5 -22.5q-39 10 -73 69.5t-34 78z" />
<glyph unicode="&#xd2;" horiz-adv-x="1425" d="M61 717.5q0 361.5 183.5 548t473.5 186.5t468 -183.5t178 -555t-182.5 -552.5t-470 -181t-469 188t-181.5 549.5zM481 716q0 -163 63.5 -250t167 -87t168 88t64.5 252t-66.5 252t-165 88t-165 -90t-66.5 -253zM487 1677q0 68 39 128.5t60 60.5q6 0 340 -185 q12 -12 12 -28q0 -61 -33 -110.5t-51 -49.5q-4 0 -356 156q-10 10 -11 28z" />
<glyph unicode="&#xd3;" horiz-adv-x="1425" d="M61 717.5q0 361.5 183.5 548t473.5 186.5t468 -183.5t178 -555t-182.5 -552.5t-470 -181t-469 188t-181.5 549.5zM481 716q0 -163 63.5 -250t167 -87t168 88t64.5 252t-66.5 252t-165 88t-165 -90t-66.5 -253zM487 1630q0 39 13 51q334 184 340 185q20 0 51 -49 q47 -72 47 -136q0 -23 -10 -32q-353 -156 -357 -156q-18 0 -47 41q-37 57 -37 96z" />
<glyph unicode="&#xd4;" horiz-adv-x="1425" d="M61 717.5q0 361.5 183.5 548t473.5 186.5t468 -183.5t178 -555t-182.5 -552.5t-470 -181t-469 188t-181.5 549.5zM362 1630q0 41 13 51l315 172q14 8 22.5 8.5t22.5 -8.5l316 -172q12 -10 12 -28q0 -63 -35 -116.5t-53 -53.5q-4 0 -262 151q-256 -151 -260 -151 q-18 0 -50 45q-41 61 -41 102zM481 716q0 -163 63.5 -250t167 -87t168 88t64.5 252t-66.5 252t-165 88t-165 -90t-66.5 -253z" />
<glyph unicode="&#xd5;" horiz-adv-x="1425" d="M61 717.5q0 361.5 183.5 548t473.5 186.5t468 -183.5t178 -555t-182.5 -552.5t-470 -181t-469 188t-181.5 549.5zM313 1689.5q0 18.5 6 24.5q129 129 267 129q63 0 143 -38t123 -38q76 2 141 80q4 2 11 2q25 0 67.5 -57t42.5 -78q0 -59 -98 -125q-63 -45 -123 -45h-14 q-78 0 -172.5 41t-116 41t-35.5 -4t-25.5 -7t-27 -13.5t-23.5 -15.5t-28.5 -21.5t-30.5 -22.5q-39 10 -73 69.5t-34 78zM481 716q0 -163 63.5 -250t167 -87t168 88t64.5 252t-66.5 252t-165 88t-165 -90t-66.5 -253z" />
<glyph unicode="&#xd6;" horiz-adv-x="1425" d="M61 717.5q0 361.5 183.5 548t473.5 186.5t468 -183.5t178 -555t-182.5 -552.5t-470 -181t-469 188t-181.5 549.5zM334 1538v287q0 18 142 18t142 -10v-293q0 -12 -142 -12t-142 10zM481 716q0 -163 63.5 -250t167 -87t168 88t64.5 252t-66.5 252t-165 88t-165 -90 t-66.5 -253zM805 1538v287q0 18 142.5 18t142.5 -10v-293q0 -12 -142.5 -12t-142.5 10z" />
<glyph unicode="&#xd7;" horiz-adv-x="1249" d="M209 438.5q0 28.5 14 42.5l228 228l-230 231q-12 12 -12 31.5t22.5 59.5t63.5 64.5t61.5 24.5t32.5 -12l229 -231l234 233q12 12 31.5 12t60.5 -23.5t64.5 -64.5t23.5 -60.5t-12 -31.5l-234 -233l232 -232q12 -12 12 -27.5t-11 -42t-44 -57.5q-55 -53 -94 -53 q-18 0 -31 12l-232 232l-227 -228q-14 -14 -43 -14t-84 55.5t-55 84z" />
<glyph unicode="&#xd8;" horiz-adv-x="1425" d="M61 711.5q0 367.5 183.5 554t464.5 186.5q109 0 217 -29l88 170q20 23 43 23q78 0 139 -53q35 -29 35 -47.5t-4 -28.5l-90 -174q227 -195 227 -583t-182.5 -569t-479.5 -181q-119 0 -235 38l-82 -159q-14 -25 -43 -25q-39 0 -86 21.5t-71.5 53.5t-12.5 58l92 178 q-203 199 -203 566.5zM416 715q0 -129 30 -217l336 647q-41 10 -69 10q-125 0 -211 -114.5t-86 -325.5zM612 301q47 -18 101 -18q133 0 215 112.5t82 293.5t-47 286z" />
<glyph unicode="&#xd9;" horiz-adv-x="1286" d="M61 483v926q0 41 222.5 41t222.5 -41v-903q0 -41 43 -64q45 -27 94 -26.5t89 23t40 67.5v909q0 41 222.5 41t222.5 -41v-962q0 -209 -149.5 -341t-413 -132t-428.5 136t-165 367zM418 1677q0 68 39 128.5t59 60.5q6 0 340 -185q12 -12 12 -28q0 -61 -32.5 -110.5 t-51.5 -49.5q-4 0 -356 156q-10 10 -10 28z" />
<glyph unicode="&#xda;" horiz-adv-x="1286" d="M61 483v926q0 41 222.5 41t222.5 -41v-903q0 -41 43 -64q45 -27 94 -26.5t89 23t40 67.5v909q0 41 222.5 41t222.5 -41v-962q0 -209 -149.5 -341t-413 -132t-428.5 136t-165 367zM418 1630q0 39 12 51q334 184 340 185q20 0 51 -49q47 -72 47 -136q0 -23 -10 -32 q-352 -156 -356 -156q-18 0 -47 41q-37 57 -37 96z" />
<glyph unicode="&#xdb;" horiz-adv-x="1286" d="M61 483v926q0 41 222.5 41t222.5 -41v-903q0 -41 43 -64q45 -27 94 -26.5t89 23t40 67.5v909q0 41 222.5 41t222.5 -41v-962q0 -209 -149.5 -341t-413 -132t-428.5 136t-165 367zM293 1630q0 41 12 51l316 172q14 8 22 8.5t23 -8.5l315 -172q12 -10 12 -28 q0 -63 -34.5 -116.5t-53.5 -53.5q-4 0 -262 151q-256 -151 -260 -151q-18 0 -49 45q-41 61 -41 102z" />
<glyph unicode="&#xdc;" horiz-adv-x="1286" d="M61 483v926q0 41 222.5 41t222.5 -41v-903q0 -41 43 -64q45 -27 94 -26.5t89 23t40 67.5v909q0 41 222.5 41t222.5 -41v-962q0 -209 -149.5 -341t-413 -132t-428.5 136t-165 367zM264 1538v287q0 18 142.5 18t142.5 -10v-293q0 -12 -142.5 -12t-142.5 10zM735 1538v287 q0 18 142.5 18t142.5 -10v-293q0 -12 -142.5 -12t-142.5 10z" />
<glyph unicode="&#xdd;" horiz-adv-x="1259" d="M-23 1419q-8 12 84.5 23.5t155.5 11.5q252 0 277 -74l149 -446l172 446q27 72 262 72q59 0 140 -8t75 -21l-426 -911v-475q0 -35 -112 -49q-57 -8 -112.5 -8t-111.5 6q-113 14 -112 51v463zM403 1630q0 39 13 51q334 184 340 185q20 0 51 -49q47 -72 47 -136 q0 -23 -10 -32q-353 -156 -357 -156q-18 0 -47 41q-37 57 -37 96z" />
<glyph unicode="&#xde;" horiz-adv-x="1218" d="M94 27v1405q0 29 191 28q203 -8 202 -26v-164q332 0 467.5 -123t135.5 -365q0 -197 -127 -360q-63 -82 -186.5 -131t-287.5 -49v-213q0 -31 -100 -43q-51 -6 -100 -6q-195 0 -195 47zM489 590h27q72 0 121 45t49 127t-34 116.5t-120 34.5h-43v-323z" />
<glyph unicode="&#xdf;" horiz-adv-x="1376" d="M168 -283v1321q0 207 136 311.5t364.5 104.5t348.5 -90t120 -265t-115 -372q133 -63 174 -104q88 -86 88 -250t-107.5 -278.5t-299.5 -114.5q-123 0 -204 51t-81 129q0 90 33 205q68 -31 133 -31q135 0 135 98q0 76 -51 106.5t-170 36.5q-51 39 -51 130q0 43 14 84.5 t43 41.5l59 3q6 8 19.5 51t13.5 112.5t-61 100.5q-29 16 -60 16t-63 -18q-59 -35 -60 -117l2 -1262q0 -25 -180 -24.5t-180 24.5z" />
<glyph unicode="&#xe0;" horiz-adv-x="1058" d="M29 338q0 334 399 334h113v20q0 53 -17.5 68.5t-81.5 15.5q-78 0 -221 -33q-57 102 -57 167t35 83q117 51 320.5 51t287.5 -95t84 -281v-324h70q35 0 54 -41t19 -112.5t-35.5 -141t-97.5 -69.5q-111 0 -178 59q-31 25 -47 59q-94 -119 -293 -118q-150 0 -252 106.5 t-102 251.5zM293 1268q0 68 39 128t59 60q6 0 340 -184q12 -12 12 -29q0 -61 -32.5 -110.5t-51.5 -49.5q-4 0 -356 156q-10 10 -10 29zM385 367q0 -45 24.5 -69t62.5 -24t69 31v158h-58q-98 0 -98 -96z" />
<glyph unicode="&#xe1;" horiz-adv-x="1058" d="M29 338q0 334 399 334h113v20q0 53 -17.5 68.5t-81.5 15.5q-78 0 -221 -33q-57 102 -57 167t35 83q117 51 320.5 51t287.5 -95t84 -281v-324h70q35 0 54 -41t19 -112.5t-35.5 -141t-97.5 -69.5q-111 0 -178 59q-31 25 -47 59q-94 -119 -293 -118q-150 0 -252 106.5 t-102 251.5zM278.5 1220.5q0.5 39.5 12.5 51.5q334 184 340 184q20 0 51 -49q47 -72 47 -135q0 -23 -10 -33q-353 -156 -357 -156q-18 0 -47 41q-37 57 -36.5 96.5zM385 367q0 -45 24.5 -69t62.5 -24t69 31v158h-58q-98 0 -98 -96z" />
<glyph unicode="&#xe2;" horiz-adv-x="1058" d="M29 338q0 334 399 334h113v20q0 53 -17.5 68.5t-81.5 15.5q-78 0 -221 -33q-57 102 -57 167t35 83q117 51 320.5 51t287.5 -95t84 -281v-324h70q35 0 54 -41t19 -112.5t-35.5 -141t-97.5 -69.5q-111 0 -178 59q-31 25 -47 59q-94 -119 -293 -118q-150 0 -252 106.5 t-102 251.5zM147 1220.5q0 41.5 13 51.5l315 172q14 8 22.5 8t22.5 -8l316 -172q12 -10 12 -29q0 -63 -35 -116.5t-53 -53.5q-4 0 -262 152q-256 -152 -260 -152q-18 0 -50 45q-41 61 -41 102.5zM385 367q0 -45 24.5 -69t62.5 -24t69 31v158h-58q-98 0 -98 -96z" />
<glyph unicode="&#xe3;" horiz-adv-x="1058" d="M29 338q0 334 399 334h113v20q0 53 -17.5 68.5t-81.5 15.5q-78 0 -221 -33q-57 102 -57 167t35 83q117 51 320.5 51t287.5 -95t84 -281v-324h70q35 0 54 -41t19 -112.5t-35.5 -141t-97.5 -69.5q-111 0 -178 59q-31 25 -47 59q-94 -119 -293 -118q-150 0 -252 106.5 t-102 251.5zM119 1280q0 18 6 25q129 129 266 129q63 0 143 -38t123 -38q76 2 142 80q4 2 10 2q25 0 68 -57.5t43 -77.5q0 -59 -97 -125q-66 -45 -125 -45h-14q-78 0 -172 41t-115.5 41t-36 -4.5t-25.5 -7.5t-26.5 -13t-24 -15.5t-29 -21.5t-30.5 -22q-39 10 -72.5 69.5 t-33.5 77.5zM385 367q0 -45 24.5 -69t62.5 -24t69 31v158h-58q-98 0 -98 -96z" />
<glyph unicode="&#xe4;" horiz-adv-x="1058" d="M29 338q0 334 399 334h113v20q0 53 -17.5 68.5t-81.5 15.5q-78 0 -221 -33q-57 102 -57 167t35 83q117 51 320.5 51t287.5 -95t84 -281v-324h70q35 0 54 -41t19 -112.5t-35.5 -141t-97.5 -69.5q-111 0 -178 59q-31 25 -47 59q-94 -119 -293 -118q-150 0 -252 106.5 t-102 251.5zM129 1128v287q0 18 142.5 18.5t142.5 -10.5v-293q0 -12 -142.5 -12t-142.5 10zM385 367q0 -45 24.5 -69t62.5 -24t69 31v158h-58q-98 0 -98 -96zM600 1128v287q0 18 142.5 18.5t142.5 -10.5v-293q0 -12 -142.5 -12t-142.5 10z" />
<glyph unicode="&#xe5;" horiz-adv-x="1058" d="M29 338q0 334 399 334h113v20q0 53 -17.5 68.5t-81.5 15.5q-78 0 -221 -33q-57 102 -57 167t35 83q117 51 320.5 51t287.5 -95t84 -281v-324h70q35 0 54 -41t19 -112.5t-35.5 -141t-97.5 -69.5q-111 0 -178 59q-31 25 -47 59q-94 -119 -293 -118q-150 0 -252 106.5 t-102 251.5zM332 1268q0 78 53 131t131 53t131 -53t53 -131t-53 -131.5t-131 -53.5t-131 53.5t-53 131.5zM385 367q0 -45 24.5 -69t62.5 -24t69 31v158h-58q-98 0 -98 -96zM395 1270q0 -51 36 -87t87 -36t87 36t36 87t-36 87t-87 36t-87 -36t-36 -87z" />
<glyph unicode="&#xe6;" horiz-adv-x="1402" d="M29 324q0 328 383 327h110v19q0 49 -17.5 65.5t-78.5 16.5t-105.5 -9.5t-69 -14.5t-36.5 -9q-57 96 -57 176q0 47 35 66q106 49 296 49q117 0 226 -66q147 76 237 76q193 0 301.5 -102.5t108.5 -245.5q0 -328 -369 -328h-135v-29q8 -45 39 -61t88 -16q135 0 264 63 q66 -102 66 -164.5t-37 -83.5q-129 -74 -316.5 -73.5t-312.5 108.5q-94 -109 -280 -108q-145 0 -242.5 101t-97.5 243zM371 353q0 -89 82 -89q37 0 69 29v149h-57q-94 0 -94 -89zM858 567h105q65 0 65 68q0 82 -82 82q-74 0 -88 -68v-82z" />
<glyph unicode="&#xe7;" horiz-adv-x="868" d="M53 516q0 229 130 378.5t346 149.5t300 -104q18 -23 18.5 -67t-16.5 -107q-37 -131 -96 -152q-8 -2 -23.5 -2t-37.5 25q-80 80 -128 80t-83 -49t-35 -160q0 -201 152 -201q98 0 163 39q31 0 50.5 -105.5t19.5 -143.5t-10 -50q-82 -49 -199 -61q25 -94 25 -155.5 t-19 -96.5q-51 -96 -190 -96q-84 0 -150 34q-25 12 -24 68v35q10 84 47 84h67q43 0 55.5 11t12.5 54v64q-162 27 -268.5 163t-106.5 365z" />
<glyph unicode="&#xe8;" horiz-adv-x="995" d="M53 500.5q0 244.5 134.5 394t339 149.5t316 -104t111.5 -254q0 -332 -381 -332h-141q0 -61 34 -84.5t99 -23.5q143 0 273 65q2 2 18 -28q49 -88 49 -149t-39 -79q-129 -76 -331.5 -75.5t-342 138.5t-139.5 382.5zM281 1268q0 68 38.5 128t59.5 60q6 0 340 -184 q12 -12 12 -29q0 -61 -32.5 -110.5t-51.5 -49.5q-4 0 -356 156q-10 10 -10 29zM432 578h111q67 -1 67 69q0 86 -84 86q-39 0 -66.5 -23.5t-27.5 -68.5v-63z" />
<glyph unicode="&#xe9;" horiz-adv-x="995" d="M53 500.5q0 244.5 134.5 394t339 149.5t316 -104t111.5 -254q0 -332 -381 -332h-141q0 -61 34 -84.5t99 -23.5q143 0 273 65q2 2 18 -28q49 -88 49 -149t-39 -79q-129 -76 -331.5 -75.5t-342 138.5t-139.5 382.5zM280.5 1220.5q0.5 39.5 12.5 51.5q334 184 340 184 q20 0 51 -49q47 -72 47 -135q0 -23 -10 -33q-352 -156 -356 -156q-18 0 -48 41q-37 57 -36.5 96.5zM432 578h111q67 -1 67 69q0 86 -84 86q-39 0 -66.5 -23.5t-27.5 -68.5v-63z" />
<glyph unicode="&#xea;" horiz-adv-x="995" d="M53 500.5q0 244.5 134.5 394t339 149.5t316 -104t111.5 -254q0 -332 -381 -332h-141q0 -61 34 -84.5t99 -23.5q143 0 273 65q2 2 18 -28q49 -88 49 -149t-39 -79q-129 -76 -331.5 -75.5t-342 138.5t-139.5 382.5zM156 1220.5q0 41.5 12 51.5l315 172q14 8 22.5 8t22.5 -8 l316 -172q12 -10 12 -29q0 -63 -35 -116.5t-53 -53.5q-4 0 -262 152q-256 -152 -260 -152q-18 0 -49 45q-41 61 -41 102.5zM432 578h111q67 -1 67 69q0 86 -84 86q-39 0 -66.5 -23.5t-27.5 -68.5v-63z" />
<glyph unicode="&#xeb;" horiz-adv-x="995" d="M53 500.5q0 244.5 134.5 394t339 149.5t316 -104t111.5 -254q0 -332 -381 -332h-141q0 -61 34 -84.5t99 -23.5q143 0 273 65q2 2 18 -28q49 -88 49 -149t-39 -79q-129 -76 -331.5 -75.5t-342 138.5t-139.5 382.5zM127 1128v287q0 18 142.5 18.5t142.5 -10.5v-293 q0 -12 -142.5 -12t-142.5 10zM432 578h111q67 -1 67 69q0 86 -84 86q-39 0 -66.5 -23.5t-27.5 -68.5v-63zM598 1128v287q0 18 142.5 18.5t142.5 -10.5v-293q0 -12 -142.5 -12t-142.5 10z" />
<glyph unicode="&#xec;" horiz-adv-x="546" d="M45 1268q0 68 39 128t59 60q6 0 340 -184q12 -12 13 -29q0 -61 -33 -110.5t-51 -49.5q-5 0 -357 156q-10 10 -10 29zM92 10v973q0 12 181.5 12t181.5 -10v-973q0 -16 -181.5 -16t-181.5 14z" />
<glyph unicode="&#xed;" horiz-adv-x="546" d="M45 1220.5q0 39.5 12 51.5q334 184 340 184q20 0 52 -49q47 -72 47 -135q0 -23 -11 -33q-352 -156 -356 -156q-18 0 -47 41q-37 57 -37 96.5zM92 10v973q0 12 181.5 12t181.5 -10v-973q0 -16 -181.5 -16t-181.5 14z" />
<glyph unicode="&#xee;" horiz-adv-x="546" d="M-80 1220.5q0 41.5 12 51.5l316 172q14 8 22.5 8t22.5 -8l315 -172q12 -10 13 -29q0 -63 -35 -116.5t-54 -53.5q-4 0 -262 152q-256 -152 -260 -152q-18 0 -49 45q-41 61 -41 102.5zM92 10v973q0 12 181.5 12t181.5 -10v-973q0 -16 -181.5 -16t-181.5 14z" />
<glyph unicode="&#xef;" horiz-adv-x="546" d="M-109 1128v287q0 18 142.5 18.5t142.5 -10.5v-293q0 -12 -142.5 -12t-142.5 10zM92 10v973q0 12 181.5 12t181.5 -10v-973q0 -16 -181.5 -16t-181.5 14zM362 1128v287q0 18 142.5 18.5t142.5 -10.5v-293q0 -12 -142.5 -12t-142.5 10z" />
<glyph unicode="&#xf0;" horiz-adv-x="1175" d="M82 424q0 197 113.5 296t287.5 99q90 0 195 -28q-8 87 -88 210l-326 -65q-29 0 -47 27.5t-18 60.5q0 57 47 66l239 49q-51 59 -127 131q121 182 232 182q127 0 289 -233l172 34h8q29 0 47 -27.5t18 -60.5q0 -57 -45 -65l-116 -25q102 -201 102 -485.5t-137 -447 t-396 -162.5q-213 0 -331.5 123.5t-118.5 320.5zM436 440q0 -125 101 -125q72 0 104.5 51.5t32.5 129.5q0 25 -2 39q-41 29 -131 28q-49 0 -77 -34t-28 -89z" />
<glyph unicode="&#xf1;" horiz-adv-x="1128" d="M41 827q0 63 25 127q37 90 114.5 90t139 -36.5t81.5 -73.5q129 111 307.5 110.5t258.5 -96.5t80 -315v-615q0 -25 -175.5 -24.5t-175.5 24.5v592q0 102 -71 103q-20 0 -57.5 -17.5t-47.5 -25.5v-658q0 -14 -147 -14q-205 6 -205 22v664h-53q-53 0 -70 90q-4 27 -4 53z M172 1280q0 18 6 25q129 129 266 129q63 0 143.5 -38t123.5 -38q76 2 141 80q4 2 10 2q25 0 68 -57.5t43 -77.5q0 -59 -96 -125q-66 -45 -125 -45h-15q-78 0 -172 41t-115.5 41t-36 -4.5t-25.5 -7.5t-26.5 -13t-23.5 -15.5t-28.5 -21.5t-30.5 -22q-39 10 -73 69.5t-34 77.5z " />
<glyph unicode="&#xf2;" horiz-adv-x="1050" d="M53 512q0 250 128 391t345 141t344 -141t127 -391t-127 -391t-344 -141t-345 141t-128 391zM283 1268q0 68 38.5 128t59.5 60q6 0 340 -184q12 -12 12 -29q0 -61 -32.5 -110.5t-51.5 -49.5q-4 0 -356 156q-10 10 -10 29zM412 514q0 -188 115.5 -188t115.5 188t-115.5 188 t-115.5 -188z" />
<glyph unicode="&#xf3;" horiz-adv-x="1050" d="M53 512q0 250 128 391t345 141t344 -141t127 -391t-127 -391t-344 -141t-345 141t-128 391zM282.5 1220.5q0.5 39.5 12.5 51.5q334 184 340 184q20 0 51 -49q47 -72 47 -135q0 -23 -10 -33q-352 -156 -356 -156q-18 0 -48 41q-37 57 -36.5 96.5zM412 514 q0 -188 115.5 -188t115.5 188t-115.5 188t-115.5 -188z" />
<glyph unicode="&#xf4;" horiz-adv-x="1050" d="M53 512q0 250 128 391t345 141t344 -141t127 -391t-127 -391t-344 -141t-345 141t-128 391zM158 1220.5q0 41.5 12 51.5l315 172q14 8 22.5 8t22.5 -8l316 -172q12 -10 12 -29q0 -63 -35 -116.5t-53 -53.5q-4 0 -262 152q-256 -152 -260 -152q-18 0 -49 45 q-41 61 -41 102.5zM412 514q0 -188 115.5 -188t115.5 188t-115.5 188t-115.5 -188z" />
<glyph unicode="&#xf5;" horiz-adv-x="1050" d="M53 512q0 250 128 391t345 141t344 -141t127 -391t-127 -391t-344 -141t-345 141t-128 391zM111 1280q0 18 6 25q129 129 266 129q63 0 143 -38t123 -38q76 2 142 80q4 2 10 2q25 0 67.5 -57.5t42.5 -77.5q0 -59 -96 -125q-66 -45 -125 -45h-14q-78 0 -172 41t-115.5 41 t-36 -4.5t-26 -7.5t-26.5 -13t-23.5 -15.5t-29 -21.5t-30.5 -22q-39 10 -72.5 69.5t-33.5 77.5zM412 514q0 -188 115.5 -188t115.5 188t-115.5 188t-115.5 -188z" />
<glyph unicode="&#xf6;" horiz-adv-x="1050" d="M53 512q0 250 128 391t345 141t344 -141t127 -391t-127 -391t-344 -141t-345 141t-128 391zM131 1128v287q0 18 142.5 18.5t142.5 -10.5v-293q0 -12 -142.5 -12t-142.5 10zM412 514q0 -188 115.5 -188t115.5 188t-115.5 188t-115.5 -188zM602 1128v287q0 18 142.5 18.5 t142.5 -10.5v-293q0 -12 -142.5 -12t-142.5 10z" />
<glyph unicode="&#xf7;" horiz-adv-x="1251" d="M78 712.5q0 28.5 10 59.5q18 59 62 59h929q43 0 62 -59q10 -31 10 -59.5t-10 -59.5q-19 -59 -62 -59h-929q-43 0 -62 59q-10 31 -10 59.5zM465 188v287q0 14 150.5 14t150.5 -8v-291q0 -10 -150.5 -10t-150.5 8zM465 946v287q0 14 150.5 14t150.5 -8v-293 q0 -12 -150.5 -12t-150.5 12z" />
<glyph unicode="&#xf8;" horiz-adv-x="1050" d="M53 510q0 252 128 393t345 141q88 0 162 -24l62 108q12 25 39.5 25t51 -10t48.5 -29q57 -41 35 -86l-64 -115q137 -141 137 -396t-127 -396t-344 -141q-92 0 -168 24l-32 -57q-18 -23 -39 -23q-70 0 -119 53q-27 27 -27 44.5t9 29.5l34 64q-131 143 -131 395zM315 514 q0 -88 15 -139l250 446q-23 8 -54 8q-84 0 -147.5 -71.5t-63.5 -243.5zM469 207q25 -8 57 -8q84 0 149.5 72.5t65.5 242.5q0 90 -20 150z" />
<glyph unicode="&#xf9;" horiz-adv-x="1114" d="M82 408v604q0 23 176 22.5t176 -22.5v-598q0 -102 66 -103q49 0 110 43v658q0 20 174 20t174 -20v-672h54q70 0 69 -133q0 -68 -28 -137q-41 -90 -111 -90q-137 0 -203 112l-2 -2q-125 -111 -268 -110q-199 0 -293 99t-94 329zM352 1268q0 68 39 128t60 60q6 0 340 -184 q12 -12 12 -29q0 -61 -33 -110.5t-51 -49.5q-5 0 -357 156q-10 10 -10 29z" />
<glyph unicode="&#xfa;" horiz-adv-x="1114" d="M82 408v604q0 23 176 22.5t176 -22.5v-598q0 -102 66 -103q49 0 110 43v658q0 20 174 20t174 -20v-672h54q70 0 69 -133q0 -68 -28 -137q-41 -90 -111 -90q-137 0 -203 112l-2 -2q-125 -111 -268 -110q-199 0 -293 99t-94 329zM352 1220.5q0 39.5 13 51.5 q334 184 340 184q20 0 51 -49q47 -72 47 -135q0 -23 -10 -33q-353 -156 -357 -156q-18 0 -47 41q-37 57 -37 96.5z" />
<glyph unicode="&#xfb;" horiz-adv-x="1114" d="M82 408v604q0 23 176 22.5t176 -22.5v-598q0 -102 66 -103q49 0 110 43v658q0 20 174 20t174 -20v-672h54q70 0 69 -133q0 -68 -28 -137q-41 -90 -111 -90q-137 0 -203 112l-2 -2q-125 -111 -268 -110q-199 0 -293 99t-94 329zM166 1220.5q0 41.5 12 51.5l316 172 q14 8 22 8t23 -8l315 -172q12 -10 12 -29q0 -63 -34.5 -116.5t-53.5 -53.5q-4 0 -262 152q-256 -152 -260 -152q-18 0 -49 45q-41 61 -41 102.5z" />
<glyph unicode="&#xfc;" horiz-adv-x="1114" d="M82 408v604q0 23 176 22.5t176 -22.5v-598q0 -102 66 -103q49 0 110 43v658q0 20 174 20t174 -20v-672h54q70 0 69 -133q0 -68 -28 -137q-41 -90 -111 -90q-137 0 -203 112l-2 -2q-125 -111 -268 -110q-199 0 -293 99t-94 329zM147 1128v287q0 18 142.5 18.5t142.5 -10.5 v-293q0 -12 -142.5 -12t-142.5 10zM618 1128v287q0 18 142.5 18.5t142.5 -10.5v-293q0 -12 -142.5 -12t-142.5 10z" />
<glyph unicode="&#xfd;" horiz-adv-x="1099" d="M20 1014q0 23 187.5 22.5t193.5 -20.5l140 -471l137 473q8 16 134 16t199.5 -4t65.5 -20l-481 -1370q-2 -12 -111.5 -12.5t-204 7t-90.5 17.5l179 430zM311 1220.5q0 39.5 13 51.5q334 184 340 184q20 0 51 -49q47 -72 47 -135q0 -23 -10 -33q-353 -156 -357 -156 q-18 0 -47 41q-37 57 -37 96.5z" />
<glyph unicode="&#xfe;" horiz-adv-x="1286" d="M188 -338v1765q0 25 177.5 25t177.5 -27v-397q88 16 125 16q430 0 430 -493q0 -266 -130 -408.5t-358 -142.5q-25 0 -69 4v-342q0 -53 -170 -53q-74 0 -128.5 14.5t-54.5 38.5zM543 311q33 -14 57 -14q51 0 88 51t37 166q0 213 -111 213q-37 0 -71 -25v-391z" />
<glyph unicode="&#xff;" horiz-adv-x="1073" d="M20 1014q0 23 187.5 22.5t193.5 -20.5l140 -471l137 473q8 16 134 16t199.5 -4t65.5 -20l-481 -1370q-2 -12 -111.5 -12.5t-204 7t-90.5 17.5l179 430zM158 1128v287q0 18 142 18.5t142 -10.5v-293q0 -12 -142 -12t-142 10zM629 1128v287q0 18 142 18.5t142 -10.5v-293 q0 -12 -142 -12t-142 10z" />
<glyph unicode="&#x152;" horiz-adv-x="1796" d="M61 715.5q0 363.5 185.5 552t468.5 188.5q98 0 186 -22h719q43 0 43 -182.5t-43 -182.5h-383v-201h268q39 0 39 -143q0 -43 -9 -101.5t-34 -58.5h-264v-205h381q35 0 47 -90q6 -41 6 -86t-12 -114.5t-41 -69.5h-715q-86 -29 -196 -29q-281 0 -463.5 190.5t-182.5 554z M483 715q0 -164 64.5 -252t169 -88t169 88t64.5 253t-66.5 254t-166 89t-167 -90t-67.5 -254z" />
<glyph unicode="&#x153;" horiz-adv-x="1585" d="M53 512q0 250 128 391t328 141t320 -100q127 100 309.5 100t294 -104t111.5 -254q0 -332 -381 -332h-141q0 -61 34 -84.5t99 -23.5q143 0 272 65q2 2 19 -28q49 -88 49 -148.5t-39 -79.5q-129 -76 -317.5 -75.5t-313.5 98.5q-117 -98 -316.5 -98t-327.5 141t-128 391z M412 514q0 -188 115.5 -188t115.5 186q0 104 -35 147t-82 43q-114 0 -114 -188zM1022 578h111q67 -1 67 69q0 86 -84 86q-39 0 -66.5 -23.5t-27.5 -68.5v-63z" />
<glyph unicode="&#x178;" horiz-adv-x="1259" d="M-23 1419q-8 12 84.5 23.5t155.5 11.5q252 0 277 -74l149 -446l172 446q27 72 262 72q59 0 140 -8t75 -21l-426 -911v-475q0 -35 -112 -49q-57 -8 -112.5 -8t-111.5 6q-113 14 -112 51v463zM252 1538v287q0 18 142.5 18t142.5 -10v-293q0 -12 -142.5 -12t-142.5 10z M723 1538v287q0 18 142.5 18t142.5 -10v-293q0 -12 -142.5 -12t-142.5 10z" />
<glyph unicode="&#x2c6;" horiz-adv-x="983" d="M147 1220.5q0 41.5 13 51.5l315 172q14 8 22.5 8t22.5 -8l316 -172q12 -10 12 -29q0 -63 -35 -116.5t-53 -53.5q-4 0 -262 152q-256 -152 -260 -152q-18 0 -50 45q-41 61 -41 102.5z" />
<glyph unicode="&#x2dc;" horiz-adv-x="901" d="M45 1280q0 18 6 25q129 129 266 129q63 0 143.5 -38t123.5 -38q76 2 141 80q4 2 10 2q25 0 68 -57.5t43 -77.5q0 -59 -96 -125q-66 -45 -125 -45h-15q-78 0 -172 41t-115.5 41t-36 -4.5t-25.5 -7.5t-26.5 -13t-23.5 -15.5t-28.5 -21.5t-30.5 -22q-39 10 -73 69.5 t-34 77.5z" />
<glyph unicode="&#x2000;" horiz-adv-x="945" />
<glyph unicode="&#x2001;" horiz-adv-x="1890" />
<glyph unicode="&#x2002;" horiz-adv-x="945" />
<glyph unicode="&#x2003;" horiz-adv-x="1890" />
<glyph unicode="&#x2004;" horiz-adv-x="630" />
<glyph unicode="&#x2005;" horiz-adv-x="472" />
<glyph unicode="&#x2006;" horiz-adv-x="315" />
<glyph unicode="&#x2007;" horiz-adv-x="315" />
<glyph unicode="&#x2008;" horiz-adv-x="236" />
<glyph unicode="&#x2009;" horiz-adv-x="378" />
<glyph unicode="&#x200a;" horiz-adv-x="105" />
<glyph unicode="&#x2010;" horiz-adv-x="1075" d="M72 508.5q0 28.5 8 58.5q16 59 53 60h809q37 0 53 -60q8 -31 8.5 -59.5t-8.5 -58.5q-16 -60 -53 -60h-809q-37 0 -53 60q-8 31 -8 59.5z" />
<glyph unicode="&#x2011;" horiz-adv-x="1075" d="M72 508.5q0 28.5 8 58.5q16 59 53 60h809q37 0 53 -60q8 -31 8.5 -59.5t-8.5 -58.5q-16 -60 -53 -60h-809q-37 0 -53 60q-8 31 -8 59.5z" />
<glyph unicode="&#x2012;" horiz-adv-x="1075" d="M72 508.5q0 28.5 8 58.5q16 59 53 60h809q37 0 53 -60q8 -31 8.5 -59.5t-8.5 -58.5q-16 -60 -53 -60h-809q-37 0 -53 60q-8 31 -8 59.5z" />
<glyph unicode="&#x2013;" horiz-adv-x="960" d="M96 508.5q0 28.5 8 58.5q16 59 54 60h645q37 0 53 -60q8 -31 8 -59.5t-8 -58.5q-16 -60 -53 -60h-645q-37 0 -54 60q-8 31 -8 59.5z" />
<glyph unicode="&#x2014;" horiz-adv-x="1615" d="M137 508.5q0 28.5 8 58.5q16 59 54 60h1173q37 0 53 -60q8 -31 8.5 -59.5t-8.5 -58.5q-16 -60 -53 -60h-1173q-37 0 -54 60q-8 31 -8 59.5z" />
<glyph unicode="&#x2018;" horiz-adv-x="698" d="M182 961v432q0 39 54 53q27 6 54 6t70 -11t54 -48l123 -432q0 -37 -88 -54q-43 -8 -88.5 -8t-90.5 8q-88 17 -88 54z" />
<glyph unicode="&#x2019;" horiz-adv-x="643" d="M143 963v432q0 37 88 53q43 8 88.5 8t90.5 -8q88 -16 88 -53l-123 -432q0 -37 -60 -54q-28 -8 -57 -8t-57 8q-57 16 -58 54z" />
<glyph unicode="&#x201a;" horiz-adv-x="753" d="M111 -154.5q0 9.5 2 17.5l125 254l8 186q12 33 174 33t162 -43l-4 -174l-119 -279q-27 -59 -165 -59t-175 45q-8 10 -8 19.5z" />
<glyph unicode="&#x201c;" horiz-adv-x="1155" d="M182 961v432q0 39 54 53q27 6 54 6t70 -11t54 -48l123 -432q0 -37 -88 -54q-43 -8 -88.5 -8t-90.5 8q-88 17 -88 54zM653 961v432q0 39 54 53q27 6 54 6t70 -11t54 -48l123 -432q0 -37 -88 -54q-43 -8 -88.5 -8t-90.5 8q-88 17 -88 54z" />
<glyph unicode="&#x201d;" horiz-adv-x="1085" d="M143 961v432q0 37 88 53q43 8 88.5 8t90.5 -8q88 -16 88 -53l-123 -432q-10 -37 -53 -48.5t-71 -11.5t-54 6q-53 14 -54 54zM606 961v432q0 37 88 53q43 8 88 8t90 -8q88 -16 89 -53l-123 -432q-10 -37 -53.5 -48.5t-71 -11.5t-54.5 6q-53 14 -53 54z" />
<glyph unicode="&#x201e;" horiz-adv-x="1333" d="M111 -154.5q0 9.5 2 17.5l125 254l8 186q12 33 174 33t162 -43l-4 -174l-119 -279q-27 -59 -165 -59t-175 45q-8 10 -8 19.5zM664 -154.5q0 9.5 2 17.5l125 254l8 186q12 33 174 33t162 -43l-5 -174l-118 -279q-27 -59 -165 -59t-175 45q-8 10 -8 19.5z" />
<glyph unicode="&#x2022;" horiz-adv-x="731" d="M170 541q0 80 57.5 137t137 57t137 -57t57.5 -137t-57.5 -137.5t-137 -57.5t-137 57.5t-57.5 137.5z" />
<glyph unicode="&#x2026;" horiz-adv-x="1861" d="M119 -8v368q0 18 193.5 18.5t193.5 -9.5v-375q0 -14 -193.5 -14t-193.5 12zM739 -8v368q0 18 193.5 18.5t193.5 -9.5v-375q0 -14 -193.5 -14t-193.5 12zM1360 -8v368q0 18 193.5 18.5t193.5 -9.5v-375q0 -14 -193.5 -14t-193.5 12z" />
<glyph unicode="&#x202f;" horiz-adv-x="378" />
<glyph unicode="&#x2039;" horiz-adv-x="1017" d="M182.5 526q-0.5 23 28.5 52l344 403q12 12 31.5 12t61.5 -24.5t65.5 -64.5t23.5 -59.5t-14 -31.5l-270 -291l274 -295q14 -12 14 -31.5t-23.5 -59.5t-65.5 -64.5t-61.5 -24.5t-31.5 12l-356 424q-20 20 -20.5 43z" />
<glyph unicode="&#x203a;" horiz-adv-x="907" d="M182 195.5q0 19.5 15 31.5l274 295l-270 291q-14 12 -14.5 31.5t23 59.5t64.5 64.5t61.5 24.5t33.5 -12l344 -403q29 -29 28.5 -51.5t-20.5 -43.5l-356 -424q-14 -14 -34 -14t-61 24.5t-64.5 65.5t-23.5 60.5z" />
<glyph unicode="&#x205f;" horiz-adv-x="472" />
<glyph unicode="&#x20ac;" horiz-adv-x="1175" d="M111 720q0 339 175 534.5t445 195.5q141 0 250 -42t109 -110q0 -41 -25 -117.5t-56.5 -128t-52.5 -51.5q-6 0 -12 5q-59 43 -196 43q-182 0 -256 -144h364q29 0 41 -33q4 -16 4 -32.5t-4 -32.5q-12 -33 -41 -33h-391q0 -74 4 -94h387q29 0 39 -24.5t10 -41t-6 -32.5 q-12 -33 -43 -33h-350q102 -160 272 -160q49 0 108.5 15.5t77 28.5t21.5 13q16 0 46 -51t56.5 -126.5t26.5 -110.5q0 -80 -114.5 -127t-272.5 -47q-262 0 -439 198.5t-177 537.5z" />
<glyph unicode="&#x2122;" horiz-adv-x="1644" d="M108.5 1318q0.5 114 38.5 114h437q41 0 41 -114t-41 -114h-95v-487q0 -35 -121.5 -35t-121.5 35v487h-99q-39 0 -38.5 114zM666 719l32 674q6 49 142 49q145 0 159 -35l95 -320l82 310q20 43 133 43q170 0 184 -47l33 -670q0 -39 -119 -39t-123 37l-16 323l-84 -333 q-8 -27 -90 -27t-90 27l-86 338l-15 -330q0 -37 -118.5 -37t-118.5 37z" />
<glyph unicode="&#xe000;" horiz-adv-x="1034" d="M0 0v1034h1034v-1034h-1034z" />
<glyph unicode="&#xfb01;" horiz-adv-x="1327" d="M43 888q0 136 31 136h100v45q0 215 87 299t247 84q102 0 158.5 -31.5t56.5 -76t-12 -93.5q-23 -92 -37 -106q-61 29 -109.5 29t-66 -24t-17.5 -83v-43h594q78 0 78 -55v-957q0 -16 -187.5 -16t-187.5 14v740h-262v-725q0 -25 -171 -25t-171 25v727h-100q-31 0 -31 136z M778 1143v289q0 20 189.5 20t189.5 -12v-301q0 -12 -189.5 -12.5t-189.5 16.5z" />
<glyph unicode="&#xfb02;" horiz-adv-x="1325" d="M41 888q0 136 31 136h100v45q0 215 87 299t247 84q102 0 158.5 -31.5t56.5 -76t-12 -93.5q-23 -92 -37 -106q-61 29 -109.5 29t-66 -24t-17.5 -83v-43h299v408q0 20 187.5 20t187.5 -12v-1428q0 -16 -187.5 -16t-187.5 14v740h-264v-725q0 -25 -171 -25t-171 25v727h-100 q-31 0 -31 136z" />
</font>
</defs>
</svg>
